%TF.GenerationSoftware,KiCad,Pcbnew,9.0.5+1*%
%TF.CreationDate,2025-11-07T12:29:19+01:00*%
%TF.ProjectId,ts17-tropic01-mini,74733137-2d74-4726-9f70-696330312d6d,rev?*%
%TF.SameCoordinates,Original*%
%TF.FileFunction,Drillmap*%
%TF.FilePolarity,Positive*%
%FSLAX45Y45*%
G04 Gerber Fmt 4.5, Leading zero omitted, Abs format (unit mm)*
G04 Created by KiCad (PCBNEW 9.0.5+1) date 2025-11-07 12:29:19*
%MOMM*%
%LPD*%
G01*
G04 APERTURE LIST*
%ADD10C,0.050000*%
%ADD11C,0.200000*%
%ADD12C,0.100000*%
G04 APERTURE END LIST*
D10*
X13000000Y-10200000D02*
X13000000Y-9000000D01*
X14400000Y-10200000D02*
X13000000Y-10200000D01*
X13000000Y-9000000D02*
X14400000Y-9000000D01*
X14400000Y-9000000D02*
X14400000Y-10200000D01*
D11*
D12*
X13090000Y-9199000D02*
X13130000Y-9239000D01*
X13130000Y-9199000D02*
X13090000Y-9239000D01*
X13090000Y-9453000D02*
X13130000Y-9493000D01*
X13130000Y-9453000D02*
X13090000Y-9493000D01*
X13090000Y-9707000D02*
X13130000Y-9747000D01*
X13130000Y-9707000D02*
X13090000Y-9747000D01*
X13090000Y-9961000D02*
X13130000Y-10001000D01*
X13130000Y-9961000D02*
X13090000Y-10001000D01*
X13250013Y-9646849D02*
X13290013Y-9686849D01*
X13290013Y-9646849D02*
X13250013Y-9686849D01*
X13294400Y-9072400D02*
X13334400Y-9112400D01*
X13334400Y-9072400D02*
X13294400Y-9112400D01*
X13294400Y-10088400D02*
X13334400Y-10128400D01*
X13334400Y-10088400D02*
X13294400Y-10128400D01*
X13370000Y-9490000D02*
X13410000Y-9530000D01*
X13410000Y-9490000D02*
X13370000Y-9530000D01*
X13411000Y-9814000D02*
X13451000Y-9854000D01*
X13451000Y-9814000D02*
X13411000Y-9854000D01*
X13463000Y-9248000D02*
X13503000Y-9288000D01*
X13503000Y-9248000D02*
X13463000Y-9288000D01*
X13755000Y-9930000D02*
X13795000Y-9970000D01*
X13795000Y-9930000D02*
X13755000Y-9970000D01*
X13897000Y-9247000D02*
X13937000Y-9287000D01*
X13937000Y-9247000D02*
X13897000Y-9287000D01*
X13960000Y-9830000D02*
X14000000Y-9870000D01*
X14000000Y-9830000D02*
X13960000Y-9870000D01*
X14030000Y-9545000D02*
X14070000Y-9585000D01*
X14070000Y-9545000D02*
X14030000Y-9585000D01*
X14030000Y-9645000D02*
X14070000Y-9685000D01*
X14070000Y-9645000D02*
X14030000Y-9685000D01*
X14081800Y-9072400D02*
X14121800Y-9112400D01*
X14121800Y-9072400D02*
X14081800Y-9112400D01*
X14081800Y-10088400D02*
X14121800Y-10128400D01*
X14121800Y-10088400D02*
X14081800Y-10128400D01*
X14270000Y-9199000D02*
X14310000Y-9239000D01*
X14310000Y-9199000D02*
X14270000Y-9239000D01*
X14270000Y-9453000D02*
X14310000Y-9493000D01*
X14310000Y-9453000D02*
X14270000Y-9493000D01*
X14270000Y-9707000D02*
X14310000Y-9747000D01*
X14310000Y-9707000D02*
X14270000Y-9747000D01*
X14270000Y-9961000D02*
X14310000Y-10001000D01*
X14310000Y-9961000D02*
X14270000Y-10001000D01*
X13050000Y-9219000D02*
G75*
G02*
X12950000Y-9219000I-50000J0D01*
G01*
X12950000Y-9219000D02*
G75*
G02*
X13050000Y-9219000I50000J0D01*
G01*
X13050000Y-9473000D02*
G75*
G02*
X12950000Y-9473000I-50000J0D01*
G01*
X12950000Y-9473000D02*
G75*
G02*
X13050000Y-9473000I50000J0D01*
G01*
X13050000Y-9727000D02*
G75*
G02*
X12950000Y-9727000I-50000J0D01*
G01*
X12950000Y-9727000D02*
G75*
G02*
X13050000Y-9727000I50000J0D01*
G01*
X13050000Y-9981000D02*
G75*
G02*
X12950000Y-9981000I-50000J0D01*
G01*
X12950000Y-9981000D02*
G75*
G02*
X13050000Y-9981000I50000J0D01*
G01*
X14450000Y-9219000D02*
G75*
G02*
X14350000Y-9219000I-50000J0D01*
G01*
X14350000Y-9219000D02*
G75*
G02*
X14450000Y-9219000I50000J0D01*
G01*
X14450000Y-9473000D02*
G75*
G02*
X14350000Y-9473000I-50000J0D01*
G01*
X14350000Y-9473000D02*
G75*
G02*
X14450000Y-9473000I50000J0D01*
G01*
X14450000Y-9727000D02*
G75*
G02*
X14350000Y-9727000I-50000J0D01*
G01*
X14350000Y-9727000D02*
G75*
G02*
X14450000Y-9727000I50000J0D01*
G01*
X14450000Y-9981000D02*
G75*
G02*
X14350000Y-9981000I-50000J0D01*
G01*
X14350000Y-9981000D02*
G75*
G02*
X14450000Y-9981000I50000J0D01*
G01*
D11*
X13258277Y-10513984D02*
X13258277Y-10313984D01*
X13258277Y-10313984D02*
X13305896Y-10313984D01*
X13305896Y-10313984D02*
X13334467Y-10323508D01*
X13334467Y-10323508D02*
X13353515Y-10342555D01*
X13353515Y-10342555D02*
X13363039Y-10361603D01*
X13363039Y-10361603D02*
X13372562Y-10399698D01*
X13372562Y-10399698D02*
X13372562Y-10428270D01*
X13372562Y-10428270D02*
X13363039Y-10466365D01*
X13363039Y-10466365D02*
X13353515Y-10485412D01*
X13353515Y-10485412D02*
X13334467Y-10504460D01*
X13334467Y-10504460D02*
X13305896Y-10513984D01*
X13305896Y-10513984D02*
X13258277Y-10513984D01*
X13458277Y-10513984D02*
X13458277Y-10380650D01*
X13458277Y-10418746D02*
X13467801Y-10399698D01*
X13467801Y-10399698D02*
X13477324Y-10390174D01*
X13477324Y-10390174D02*
X13496372Y-10380650D01*
X13496372Y-10380650D02*
X13515420Y-10380650D01*
X13582086Y-10513984D02*
X13582086Y-10380650D01*
X13582086Y-10313984D02*
X13572562Y-10323508D01*
X13572562Y-10323508D02*
X13582086Y-10333031D01*
X13582086Y-10333031D02*
X13591610Y-10323508D01*
X13591610Y-10323508D02*
X13582086Y-10313984D01*
X13582086Y-10313984D02*
X13582086Y-10333031D01*
X13705896Y-10513984D02*
X13686848Y-10504460D01*
X13686848Y-10504460D02*
X13677324Y-10485412D01*
X13677324Y-10485412D02*
X13677324Y-10313984D01*
X13810658Y-10513984D02*
X13791610Y-10504460D01*
X13791610Y-10504460D02*
X13782086Y-10485412D01*
X13782086Y-10485412D02*
X13782086Y-10313984D01*
X14039229Y-10513984D02*
X14039229Y-10313984D01*
X14039229Y-10313984D02*
X14105896Y-10456841D01*
X14105896Y-10456841D02*
X14172562Y-10313984D01*
X14172562Y-10313984D02*
X14172562Y-10513984D01*
X14353515Y-10513984D02*
X14353515Y-10409222D01*
X14353515Y-10409222D02*
X14343991Y-10390174D01*
X14343991Y-10390174D02*
X14324943Y-10380650D01*
X14324943Y-10380650D02*
X14286848Y-10380650D01*
X14286848Y-10380650D02*
X14267801Y-10390174D01*
X14353515Y-10504460D02*
X14334467Y-10513984D01*
X14334467Y-10513984D02*
X14286848Y-10513984D01*
X14286848Y-10513984D02*
X14267801Y-10504460D01*
X14267801Y-10504460D02*
X14258277Y-10485412D01*
X14258277Y-10485412D02*
X14258277Y-10466365D01*
X14258277Y-10466365D02*
X14267801Y-10447317D01*
X14267801Y-10447317D02*
X14286848Y-10437793D01*
X14286848Y-10437793D02*
X14334467Y-10437793D01*
X14334467Y-10437793D02*
X14353515Y-10428270D01*
X14448753Y-10380650D02*
X14448753Y-10580650D01*
X14448753Y-10390174D02*
X14467801Y-10380650D01*
X14467801Y-10380650D02*
X14505896Y-10380650D01*
X14505896Y-10380650D02*
X14524943Y-10390174D01*
X14524943Y-10390174D02*
X14534467Y-10399698D01*
X14534467Y-10399698D02*
X14543991Y-10418746D01*
X14543991Y-10418746D02*
X14543991Y-10475889D01*
X14543991Y-10475889D02*
X14534467Y-10494936D01*
X14534467Y-10494936D02*
X14524943Y-10504460D01*
X14524943Y-10504460D02*
X14505896Y-10513984D01*
X14505896Y-10513984D02*
X14467801Y-10513984D01*
X14467801Y-10513984D02*
X14448753Y-10504460D01*
X14629705Y-10494936D02*
X14639229Y-10504460D01*
X14639229Y-10504460D02*
X14629705Y-10513984D01*
X14629705Y-10513984D02*
X14620182Y-10504460D01*
X14620182Y-10504460D02*
X14629705Y-10494936D01*
X14629705Y-10494936D02*
X14629705Y-10513984D01*
X14629705Y-10390174D02*
X14639229Y-10399698D01*
X14639229Y-10399698D02*
X14629705Y-10409222D01*
X14629705Y-10409222D02*
X14620182Y-10399698D01*
X14620182Y-10399698D02*
X14629705Y-10390174D01*
X14629705Y-10390174D02*
X14629705Y-10409222D01*
D12*
X12957500Y-10822500D02*
X12997500Y-10862500D01*
X12997500Y-10822500D02*
X12957500Y-10862500D01*
D11*
X13296372Y-10733984D02*
X13315420Y-10733984D01*
X13315420Y-10733984D02*
X13334467Y-10743508D01*
X13334467Y-10743508D02*
X13343991Y-10753031D01*
X13343991Y-10753031D02*
X13353515Y-10772079D01*
X13353515Y-10772079D02*
X13363039Y-10810174D01*
X13363039Y-10810174D02*
X13363039Y-10857793D01*
X13363039Y-10857793D02*
X13353515Y-10895889D01*
X13353515Y-10895889D02*
X13343991Y-10914936D01*
X13343991Y-10914936D02*
X13334467Y-10924460D01*
X13334467Y-10924460D02*
X13315420Y-10933984D01*
X13315420Y-10933984D02*
X13296372Y-10933984D01*
X13296372Y-10933984D02*
X13277324Y-10924460D01*
X13277324Y-10924460D02*
X13267801Y-10914936D01*
X13267801Y-10914936D02*
X13258277Y-10895889D01*
X13258277Y-10895889D02*
X13248753Y-10857793D01*
X13248753Y-10857793D02*
X13248753Y-10810174D01*
X13248753Y-10810174D02*
X13258277Y-10772079D01*
X13258277Y-10772079D02*
X13267801Y-10753031D01*
X13267801Y-10753031D02*
X13277324Y-10743508D01*
X13277324Y-10743508D02*
X13296372Y-10733984D01*
X13448753Y-10914936D02*
X13458277Y-10924460D01*
X13458277Y-10924460D02*
X13448753Y-10933984D01*
X13448753Y-10933984D02*
X13439229Y-10924460D01*
X13439229Y-10924460D02*
X13448753Y-10914936D01*
X13448753Y-10914936D02*
X13448753Y-10933984D01*
X13629705Y-10800650D02*
X13629705Y-10933984D01*
X13582086Y-10724460D02*
X13534467Y-10867317D01*
X13534467Y-10867317D02*
X13658277Y-10867317D01*
X13772562Y-10733984D02*
X13791610Y-10733984D01*
X13791610Y-10733984D02*
X13810658Y-10743508D01*
X13810658Y-10743508D02*
X13820182Y-10753031D01*
X13820182Y-10753031D02*
X13829705Y-10772079D01*
X13829705Y-10772079D02*
X13839229Y-10810174D01*
X13839229Y-10810174D02*
X13839229Y-10857793D01*
X13839229Y-10857793D02*
X13829705Y-10895889D01*
X13829705Y-10895889D02*
X13820182Y-10914936D01*
X13820182Y-10914936D02*
X13810658Y-10924460D01*
X13810658Y-10924460D02*
X13791610Y-10933984D01*
X13791610Y-10933984D02*
X13772562Y-10933984D01*
X13772562Y-10933984D02*
X13753515Y-10924460D01*
X13753515Y-10924460D02*
X13743991Y-10914936D01*
X13743991Y-10914936D02*
X13734467Y-10895889D01*
X13734467Y-10895889D02*
X13724943Y-10857793D01*
X13724943Y-10857793D02*
X13724943Y-10810174D01*
X13724943Y-10810174D02*
X13734467Y-10772079D01*
X13734467Y-10772079D02*
X13743991Y-10753031D01*
X13743991Y-10753031D02*
X13753515Y-10743508D01*
X13753515Y-10743508D02*
X13772562Y-10733984D01*
X13963039Y-10733984D02*
X13982086Y-10733984D01*
X13982086Y-10733984D02*
X14001134Y-10743508D01*
X14001134Y-10743508D02*
X14010658Y-10753031D01*
X14010658Y-10753031D02*
X14020182Y-10772079D01*
X14020182Y-10772079D02*
X14029705Y-10810174D01*
X14029705Y-10810174D02*
X14029705Y-10857793D01*
X14029705Y-10857793D02*
X14020182Y-10895889D01*
X14020182Y-10895889D02*
X14010658Y-10914936D01*
X14010658Y-10914936D02*
X14001134Y-10924460D01*
X14001134Y-10924460D02*
X13982086Y-10933984D01*
X13982086Y-10933984D02*
X13963039Y-10933984D01*
X13963039Y-10933984D02*
X13943991Y-10924460D01*
X13943991Y-10924460D02*
X13934467Y-10914936D01*
X13934467Y-10914936D02*
X13924943Y-10895889D01*
X13924943Y-10895889D02*
X13915420Y-10857793D01*
X13915420Y-10857793D02*
X13915420Y-10810174D01*
X13915420Y-10810174D02*
X13924943Y-10772079D01*
X13924943Y-10772079D02*
X13934467Y-10753031D01*
X13934467Y-10753031D02*
X13943991Y-10743508D01*
X13943991Y-10743508D02*
X13963039Y-10733984D01*
X14115420Y-10933984D02*
X14115420Y-10800650D01*
X14115420Y-10819698D02*
X14124943Y-10810174D01*
X14124943Y-10810174D02*
X14143991Y-10800650D01*
X14143991Y-10800650D02*
X14172563Y-10800650D01*
X14172563Y-10800650D02*
X14191610Y-10810174D01*
X14191610Y-10810174D02*
X14201134Y-10829222D01*
X14201134Y-10829222D02*
X14201134Y-10933984D01*
X14201134Y-10829222D02*
X14210658Y-10810174D01*
X14210658Y-10810174D02*
X14229705Y-10800650D01*
X14229705Y-10800650D02*
X14258277Y-10800650D01*
X14258277Y-10800650D02*
X14277324Y-10810174D01*
X14277324Y-10810174D02*
X14286848Y-10829222D01*
X14286848Y-10829222D02*
X14286848Y-10933984D01*
X14382086Y-10933984D02*
X14382086Y-10800650D01*
X14382086Y-10819698D02*
X14391610Y-10810174D01*
X14391610Y-10810174D02*
X14410658Y-10800650D01*
X14410658Y-10800650D02*
X14439229Y-10800650D01*
X14439229Y-10800650D02*
X14458277Y-10810174D01*
X14458277Y-10810174D02*
X14467801Y-10829222D01*
X14467801Y-10829222D02*
X14467801Y-10933984D01*
X14467801Y-10829222D02*
X14477324Y-10810174D01*
X14477324Y-10810174D02*
X14496372Y-10800650D01*
X14496372Y-10800650D02*
X14524943Y-10800650D01*
X14524943Y-10800650D02*
X14543991Y-10810174D01*
X14543991Y-10810174D02*
X14553515Y-10829222D01*
X14553515Y-10829222D02*
X14553515Y-10933984D01*
X14943991Y-10724460D02*
X14772563Y-10981603D01*
X15201134Y-10733984D02*
X15220182Y-10733984D01*
X15220182Y-10733984D02*
X15239229Y-10743508D01*
X15239229Y-10743508D02*
X15248753Y-10753031D01*
X15248753Y-10753031D02*
X15258277Y-10772079D01*
X15258277Y-10772079D02*
X15267801Y-10810174D01*
X15267801Y-10810174D02*
X15267801Y-10857793D01*
X15267801Y-10857793D02*
X15258277Y-10895889D01*
X15258277Y-10895889D02*
X15248753Y-10914936D01*
X15248753Y-10914936D02*
X15239229Y-10924460D01*
X15239229Y-10924460D02*
X15220182Y-10933984D01*
X15220182Y-10933984D02*
X15201134Y-10933984D01*
X15201134Y-10933984D02*
X15182086Y-10924460D01*
X15182086Y-10924460D02*
X15172563Y-10914936D01*
X15172563Y-10914936D02*
X15163039Y-10895889D01*
X15163039Y-10895889D02*
X15153515Y-10857793D01*
X15153515Y-10857793D02*
X15153515Y-10810174D01*
X15153515Y-10810174D02*
X15163039Y-10772079D01*
X15163039Y-10772079D02*
X15172563Y-10753031D01*
X15172563Y-10753031D02*
X15182086Y-10743508D01*
X15182086Y-10743508D02*
X15201134Y-10733984D01*
X15353515Y-10914936D02*
X15363039Y-10924460D01*
X15363039Y-10924460D02*
X15353515Y-10933984D01*
X15353515Y-10933984D02*
X15343991Y-10924460D01*
X15343991Y-10924460D02*
X15353515Y-10914936D01*
X15353515Y-10914936D02*
X15353515Y-10933984D01*
X15486848Y-10733984D02*
X15505896Y-10733984D01*
X15505896Y-10733984D02*
X15524944Y-10743508D01*
X15524944Y-10743508D02*
X15534467Y-10753031D01*
X15534467Y-10753031D02*
X15543991Y-10772079D01*
X15543991Y-10772079D02*
X15553515Y-10810174D01*
X15553515Y-10810174D02*
X15553515Y-10857793D01*
X15553515Y-10857793D02*
X15543991Y-10895889D01*
X15543991Y-10895889D02*
X15534467Y-10914936D01*
X15534467Y-10914936D02*
X15524944Y-10924460D01*
X15524944Y-10924460D02*
X15505896Y-10933984D01*
X15505896Y-10933984D02*
X15486848Y-10933984D01*
X15486848Y-10933984D02*
X15467801Y-10924460D01*
X15467801Y-10924460D02*
X15458277Y-10914936D01*
X15458277Y-10914936D02*
X15448753Y-10895889D01*
X15448753Y-10895889D02*
X15439229Y-10857793D01*
X15439229Y-10857793D02*
X15439229Y-10810174D01*
X15439229Y-10810174D02*
X15448753Y-10772079D01*
X15448753Y-10772079D02*
X15458277Y-10753031D01*
X15458277Y-10753031D02*
X15467801Y-10743508D01*
X15467801Y-10743508D02*
X15486848Y-10733984D01*
X15743991Y-10933984D02*
X15629706Y-10933984D01*
X15686848Y-10933984D02*
X15686848Y-10733984D01*
X15686848Y-10733984D02*
X15667801Y-10762555D01*
X15667801Y-10762555D02*
X15648753Y-10781603D01*
X15648753Y-10781603D02*
X15629706Y-10791127D01*
X15924944Y-10733984D02*
X15829706Y-10733984D01*
X15829706Y-10733984D02*
X15820182Y-10829222D01*
X15820182Y-10829222D02*
X15829706Y-10819698D01*
X15829706Y-10819698D02*
X15848753Y-10810174D01*
X15848753Y-10810174D02*
X15896372Y-10810174D01*
X15896372Y-10810174D02*
X15915420Y-10819698D01*
X15915420Y-10819698D02*
X15924944Y-10829222D01*
X15924944Y-10829222D02*
X15934467Y-10848270D01*
X15934467Y-10848270D02*
X15934467Y-10895889D01*
X15934467Y-10895889D02*
X15924944Y-10914936D01*
X15924944Y-10914936D02*
X15915420Y-10924460D01*
X15915420Y-10924460D02*
X15896372Y-10933984D01*
X15896372Y-10933984D02*
X15848753Y-10933984D01*
X15848753Y-10933984D02*
X15829706Y-10924460D01*
X15829706Y-10924460D02*
X15820182Y-10914936D01*
X16001134Y-10733984D02*
X16134467Y-10733984D01*
X16134467Y-10733984D02*
X16048753Y-10933984D01*
X16201134Y-10733984D02*
X16201134Y-10772079D01*
X16277325Y-10733984D02*
X16277325Y-10772079D01*
X16572563Y-11010174D02*
X16563039Y-11000650D01*
X16563039Y-11000650D02*
X16543991Y-10972079D01*
X16543991Y-10972079D02*
X16534468Y-10953031D01*
X16534468Y-10953031D02*
X16524944Y-10924460D01*
X16524944Y-10924460D02*
X16515420Y-10876841D01*
X16515420Y-10876841D02*
X16515420Y-10838746D01*
X16515420Y-10838746D02*
X16524944Y-10791127D01*
X16524944Y-10791127D02*
X16534468Y-10762555D01*
X16534468Y-10762555D02*
X16543991Y-10743508D01*
X16543991Y-10743508D02*
X16563039Y-10714936D01*
X16563039Y-10714936D02*
X16572563Y-10705412D01*
X16639229Y-10753031D02*
X16648753Y-10743508D01*
X16648753Y-10743508D02*
X16667801Y-10733984D01*
X16667801Y-10733984D02*
X16715420Y-10733984D01*
X16715420Y-10733984D02*
X16734468Y-10743508D01*
X16734468Y-10743508D02*
X16743991Y-10753031D01*
X16743991Y-10753031D02*
X16753515Y-10772079D01*
X16753515Y-10772079D02*
X16753515Y-10791127D01*
X16753515Y-10791127D02*
X16743991Y-10819698D01*
X16743991Y-10819698D02*
X16629706Y-10933984D01*
X16629706Y-10933984D02*
X16753515Y-10933984D01*
X16943991Y-10933984D02*
X16829706Y-10933984D01*
X16886849Y-10933984D02*
X16886849Y-10733984D01*
X16886849Y-10733984D02*
X16867801Y-10762555D01*
X16867801Y-10762555D02*
X16848753Y-10781603D01*
X16848753Y-10781603D02*
X16829706Y-10791127D01*
X17182087Y-10933984D02*
X17182087Y-10733984D01*
X17267801Y-10933984D02*
X17267801Y-10829222D01*
X17267801Y-10829222D02*
X17258277Y-10810174D01*
X17258277Y-10810174D02*
X17239230Y-10800650D01*
X17239230Y-10800650D02*
X17210658Y-10800650D01*
X17210658Y-10800650D02*
X17191611Y-10810174D01*
X17191611Y-10810174D02*
X17182087Y-10819698D01*
X17391611Y-10933984D02*
X17372563Y-10924460D01*
X17372563Y-10924460D02*
X17363039Y-10914936D01*
X17363039Y-10914936D02*
X17353515Y-10895889D01*
X17353515Y-10895889D02*
X17353515Y-10838746D01*
X17353515Y-10838746D02*
X17363039Y-10819698D01*
X17363039Y-10819698D02*
X17372563Y-10810174D01*
X17372563Y-10810174D02*
X17391611Y-10800650D01*
X17391611Y-10800650D02*
X17420182Y-10800650D01*
X17420182Y-10800650D02*
X17439230Y-10810174D01*
X17439230Y-10810174D02*
X17448753Y-10819698D01*
X17448753Y-10819698D02*
X17458277Y-10838746D01*
X17458277Y-10838746D02*
X17458277Y-10895889D01*
X17458277Y-10895889D02*
X17448753Y-10914936D01*
X17448753Y-10914936D02*
X17439230Y-10924460D01*
X17439230Y-10924460D02*
X17420182Y-10933984D01*
X17420182Y-10933984D02*
X17391611Y-10933984D01*
X17572563Y-10933984D02*
X17553515Y-10924460D01*
X17553515Y-10924460D02*
X17543992Y-10905412D01*
X17543992Y-10905412D02*
X17543992Y-10733984D01*
X17724944Y-10924460D02*
X17705896Y-10933984D01*
X17705896Y-10933984D02*
X17667801Y-10933984D01*
X17667801Y-10933984D02*
X17648753Y-10924460D01*
X17648753Y-10924460D02*
X17639230Y-10905412D01*
X17639230Y-10905412D02*
X17639230Y-10829222D01*
X17639230Y-10829222D02*
X17648753Y-10810174D01*
X17648753Y-10810174D02*
X17667801Y-10800650D01*
X17667801Y-10800650D02*
X17705896Y-10800650D01*
X17705896Y-10800650D02*
X17724944Y-10810174D01*
X17724944Y-10810174D02*
X17734468Y-10829222D01*
X17734468Y-10829222D02*
X17734468Y-10848270D01*
X17734468Y-10848270D02*
X17639230Y-10867317D01*
X17810658Y-10924460D02*
X17829706Y-10933984D01*
X17829706Y-10933984D02*
X17867801Y-10933984D01*
X17867801Y-10933984D02*
X17886849Y-10924460D01*
X17886849Y-10924460D02*
X17896373Y-10905412D01*
X17896373Y-10905412D02*
X17896373Y-10895889D01*
X17896373Y-10895889D02*
X17886849Y-10876841D01*
X17886849Y-10876841D02*
X17867801Y-10867317D01*
X17867801Y-10867317D02*
X17839230Y-10867317D01*
X17839230Y-10867317D02*
X17820182Y-10857793D01*
X17820182Y-10857793D02*
X17810658Y-10838746D01*
X17810658Y-10838746D02*
X17810658Y-10829222D01*
X17810658Y-10829222D02*
X17820182Y-10810174D01*
X17820182Y-10810174D02*
X17839230Y-10800650D01*
X17839230Y-10800650D02*
X17867801Y-10800650D01*
X17867801Y-10800650D02*
X17886849Y-10810174D01*
X17963039Y-11010174D02*
X17972563Y-11000650D01*
X17972563Y-11000650D02*
X17991611Y-10972079D01*
X17991611Y-10972079D02*
X18001134Y-10953031D01*
X18001134Y-10953031D02*
X18010658Y-10924460D01*
X18010658Y-10924460D02*
X18020182Y-10876841D01*
X18020182Y-10876841D02*
X18020182Y-10838746D01*
X18020182Y-10838746D02*
X18010658Y-10791127D01*
X18010658Y-10791127D02*
X18001134Y-10762555D01*
X18001134Y-10762555D02*
X17991611Y-10743508D01*
X17991611Y-10743508D02*
X17972563Y-10714936D01*
X17972563Y-10714936D02*
X17963039Y-10705412D01*
D12*
X12997500Y-11106500D02*
G75*
G02*
X12897500Y-11106500I-50000J0D01*
G01*
X12897500Y-11106500D02*
G75*
G02*
X12997500Y-11106500I50000J0D01*
G01*
D11*
X13363039Y-11197984D02*
X13248753Y-11197984D01*
X13305896Y-11197984D02*
X13305896Y-10997984D01*
X13305896Y-10997984D02*
X13286848Y-11026555D01*
X13286848Y-11026555D02*
X13267801Y-11045603D01*
X13267801Y-11045603D02*
X13248753Y-11055127D01*
X13448753Y-11178936D02*
X13458277Y-11188460D01*
X13458277Y-11188460D02*
X13448753Y-11197984D01*
X13448753Y-11197984D02*
X13439229Y-11188460D01*
X13439229Y-11188460D02*
X13448753Y-11178936D01*
X13448753Y-11178936D02*
X13448753Y-11197984D01*
X13582086Y-10997984D02*
X13601134Y-10997984D01*
X13601134Y-10997984D02*
X13620182Y-11007508D01*
X13620182Y-11007508D02*
X13629705Y-11017031D01*
X13629705Y-11017031D02*
X13639229Y-11036079D01*
X13639229Y-11036079D02*
X13648753Y-11074174D01*
X13648753Y-11074174D02*
X13648753Y-11121793D01*
X13648753Y-11121793D02*
X13639229Y-11159889D01*
X13639229Y-11159889D02*
X13629705Y-11178936D01*
X13629705Y-11178936D02*
X13620182Y-11188460D01*
X13620182Y-11188460D02*
X13601134Y-11197984D01*
X13601134Y-11197984D02*
X13582086Y-11197984D01*
X13582086Y-11197984D02*
X13563039Y-11188460D01*
X13563039Y-11188460D02*
X13553515Y-11178936D01*
X13553515Y-11178936D02*
X13543991Y-11159889D01*
X13543991Y-11159889D02*
X13534467Y-11121793D01*
X13534467Y-11121793D02*
X13534467Y-11074174D01*
X13534467Y-11074174D02*
X13543991Y-11036079D01*
X13543991Y-11036079D02*
X13553515Y-11017031D01*
X13553515Y-11017031D02*
X13563039Y-11007508D01*
X13563039Y-11007508D02*
X13582086Y-10997984D01*
X13772562Y-10997984D02*
X13791610Y-10997984D01*
X13791610Y-10997984D02*
X13810658Y-11007508D01*
X13810658Y-11007508D02*
X13820182Y-11017031D01*
X13820182Y-11017031D02*
X13829705Y-11036079D01*
X13829705Y-11036079D02*
X13839229Y-11074174D01*
X13839229Y-11074174D02*
X13839229Y-11121793D01*
X13839229Y-11121793D02*
X13829705Y-11159889D01*
X13829705Y-11159889D02*
X13820182Y-11178936D01*
X13820182Y-11178936D02*
X13810658Y-11188460D01*
X13810658Y-11188460D02*
X13791610Y-11197984D01*
X13791610Y-11197984D02*
X13772562Y-11197984D01*
X13772562Y-11197984D02*
X13753515Y-11188460D01*
X13753515Y-11188460D02*
X13743991Y-11178936D01*
X13743991Y-11178936D02*
X13734467Y-11159889D01*
X13734467Y-11159889D02*
X13724943Y-11121793D01*
X13724943Y-11121793D02*
X13724943Y-11074174D01*
X13724943Y-11074174D02*
X13734467Y-11036079D01*
X13734467Y-11036079D02*
X13743991Y-11017031D01*
X13743991Y-11017031D02*
X13753515Y-11007508D01*
X13753515Y-11007508D02*
X13772562Y-10997984D01*
X13963039Y-10997984D02*
X13982086Y-10997984D01*
X13982086Y-10997984D02*
X14001134Y-11007508D01*
X14001134Y-11007508D02*
X14010658Y-11017031D01*
X14010658Y-11017031D02*
X14020182Y-11036079D01*
X14020182Y-11036079D02*
X14029705Y-11074174D01*
X14029705Y-11074174D02*
X14029705Y-11121793D01*
X14029705Y-11121793D02*
X14020182Y-11159889D01*
X14020182Y-11159889D02*
X14010658Y-11178936D01*
X14010658Y-11178936D02*
X14001134Y-11188460D01*
X14001134Y-11188460D02*
X13982086Y-11197984D01*
X13982086Y-11197984D02*
X13963039Y-11197984D01*
X13963039Y-11197984D02*
X13943991Y-11188460D01*
X13943991Y-11188460D02*
X13934467Y-11178936D01*
X13934467Y-11178936D02*
X13924943Y-11159889D01*
X13924943Y-11159889D02*
X13915420Y-11121793D01*
X13915420Y-11121793D02*
X13915420Y-11074174D01*
X13915420Y-11074174D02*
X13924943Y-11036079D01*
X13924943Y-11036079D02*
X13934467Y-11017031D01*
X13934467Y-11017031D02*
X13943991Y-11007508D01*
X13943991Y-11007508D02*
X13963039Y-10997984D01*
X14115420Y-11197984D02*
X14115420Y-11064650D01*
X14115420Y-11083698D02*
X14124943Y-11074174D01*
X14124943Y-11074174D02*
X14143991Y-11064650D01*
X14143991Y-11064650D02*
X14172563Y-11064650D01*
X14172563Y-11064650D02*
X14191610Y-11074174D01*
X14191610Y-11074174D02*
X14201134Y-11093222D01*
X14201134Y-11093222D02*
X14201134Y-11197984D01*
X14201134Y-11093222D02*
X14210658Y-11074174D01*
X14210658Y-11074174D02*
X14229705Y-11064650D01*
X14229705Y-11064650D02*
X14258277Y-11064650D01*
X14258277Y-11064650D02*
X14277324Y-11074174D01*
X14277324Y-11074174D02*
X14286848Y-11093222D01*
X14286848Y-11093222D02*
X14286848Y-11197984D01*
X14382086Y-11197984D02*
X14382086Y-11064650D01*
X14382086Y-11083698D02*
X14391610Y-11074174D01*
X14391610Y-11074174D02*
X14410658Y-11064650D01*
X14410658Y-11064650D02*
X14439229Y-11064650D01*
X14439229Y-11064650D02*
X14458277Y-11074174D01*
X14458277Y-11074174D02*
X14467801Y-11093222D01*
X14467801Y-11093222D02*
X14467801Y-11197984D01*
X14467801Y-11093222D02*
X14477324Y-11074174D01*
X14477324Y-11074174D02*
X14496372Y-11064650D01*
X14496372Y-11064650D02*
X14524943Y-11064650D01*
X14524943Y-11064650D02*
X14543991Y-11074174D01*
X14543991Y-11074174D02*
X14553515Y-11093222D01*
X14553515Y-11093222D02*
X14553515Y-11197984D01*
X14943991Y-10988460D02*
X14772563Y-11245603D01*
X15201134Y-10997984D02*
X15220182Y-10997984D01*
X15220182Y-10997984D02*
X15239229Y-11007508D01*
X15239229Y-11007508D02*
X15248753Y-11017031D01*
X15248753Y-11017031D02*
X15258277Y-11036079D01*
X15258277Y-11036079D02*
X15267801Y-11074174D01*
X15267801Y-11074174D02*
X15267801Y-11121793D01*
X15267801Y-11121793D02*
X15258277Y-11159889D01*
X15258277Y-11159889D02*
X15248753Y-11178936D01*
X15248753Y-11178936D02*
X15239229Y-11188460D01*
X15239229Y-11188460D02*
X15220182Y-11197984D01*
X15220182Y-11197984D02*
X15201134Y-11197984D01*
X15201134Y-11197984D02*
X15182086Y-11188460D01*
X15182086Y-11188460D02*
X15172563Y-11178936D01*
X15172563Y-11178936D02*
X15163039Y-11159889D01*
X15163039Y-11159889D02*
X15153515Y-11121793D01*
X15153515Y-11121793D02*
X15153515Y-11074174D01*
X15153515Y-11074174D02*
X15163039Y-11036079D01*
X15163039Y-11036079D02*
X15172563Y-11017031D01*
X15172563Y-11017031D02*
X15182086Y-11007508D01*
X15182086Y-11007508D02*
X15201134Y-10997984D01*
X15353515Y-11178936D02*
X15363039Y-11188460D01*
X15363039Y-11188460D02*
X15353515Y-11197984D01*
X15353515Y-11197984D02*
X15343991Y-11188460D01*
X15343991Y-11188460D02*
X15353515Y-11178936D01*
X15353515Y-11178936D02*
X15353515Y-11197984D01*
X15486848Y-10997984D02*
X15505896Y-10997984D01*
X15505896Y-10997984D02*
X15524944Y-11007508D01*
X15524944Y-11007508D02*
X15534467Y-11017031D01*
X15534467Y-11017031D02*
X15543991Y-11036079D01*
X15543991Y-11036079D02*
X15553515Y-11074174D01*
X15553515Y-11074174D02*
X15553515Y-11121793D01*
X15553515Y-11121793D02*
X15543991Y-11159889D01*
X15543991Y-11159889D02*
X15534467Y-11178936D01*
X15534467Y-11178936D02*
X15524944Y-11188460D01*
X15524944Y-11188460D02*
X15505896Y-11197984D01*
X15505896Y-11197984D02*
X15486848Y-11197984D01*
X15486848Y-11197984D02*
X15467801Y-11188460D01*
X15467801Y-11188460D02*
X15458277Y-11178936D01*
X15458277Y-11178936D02*
X15448753Y-11159889D01*
X15448753Y-11159889D02*
X15439229Y-11121793D01*
X15439229Y-11121793D02*
X15439229Y-11074174D01*
X15439229Y-11074174D02*
X15448753Y-11036079D01*
X15448753Y-11036079D02*
X15458277Y-11017031D01*
X15458277Y-11017031D02*
X15467801Y-11007508D01*
X15467801Y-11007508D02*
X15486848Y-10997984D01*
X15620182Y-10997984D02*
X15743991Y-10997984D01*
X15743991Y-10997984D02*
X15677325Y-11074174D01*
X15677325Y-11074174D02*
X15705896Y-11074174D01*
X15705896Y-11074174D02*
X15724944Y-11083698D01*
X15724944Y-11083698D02*
X15734467Y-11093222D01*
X15734467Y-11093222D02*
X15743991Y-11112270D01*
X15743991Y-11112270D02*
X15743991Y-11159889D01*
X15743991Y-11159889D02*
X15734467Y-11178936D01*
X15734467Y-11178936D02*
X15724944Y-11188460D01*
X15724944Y-11188460D02*
X15705896Y-11197984D01*
X15705896Y-11197984D02*
X15648753Y-11197984D01*
X15648753Y-11197984D02*
X15629706Y-11188460D01*
X15629706Y-11188460D02*
X15620182Y-11178936D01*
X15839229Y-11197984D02*
X15877325Y-11197984D01*
X15877325Y-11197984D02*
X15896372Y-11188460D01*
X15896372Y-11188460D02*
X15905896Y-11178936D01*
X15905896Y-11178936D02*
X15924944Y-11150365D01*
X15924944Y-11150365D02*
X15934467Y-11112270D01*
X15934467Y-11112270D02*
X15934467Y-11036079D01*
X15934467Y-11036079D02*
X15924944Y-11017031D01*
X15924944Y-11017031D02*
X15915420Y-11007508D01*
X15915420Y-11007508D02*
X15896372Y-10997984D01*
X15896372Y-10997984D02*
X15858277Y-10997984D01*
X15858277Y-10997984D02*
X15839229Y-11007508D01*
X15839229Y-11007508D02*
X15829706Y-11017031D01*
X15829706Y-11017031D02*
X15820182Y-11036079D01*
X15820182Y-11036079D02*
X15820182Y-11083698D01*
X15820182Y-11083698D02*
X15829706Y-11102746D01*
X15829706Y-11102746D02*
X15839229Y-11112270D01*
X15839229Y-11112270D02*
X15858277Y-11121793D01*
X15858277Y-11121793D02*
X15896372Y-11121793D01*
X15896372Y-11121793D02*
X15915420Y-11112270D01*
X15915420Y-11112270D02*
X15924944Y-11102746D01*
X15924944Y-11102746D02*
X15934467Y-11083698D01*
X16105896Y-11064650D02*
X16105896Y-11197984D01*
X16058277Y-10988460D02*
X16010658Y-11131317D01*
X16010658Y-11131317D02*
X16134467Y-11131317D01*
X16201134Y-10997984D02*
X16201134Y-11036079D01*
X16277325Y-10997984D02*
X16277325Y-11036079D01*
X16572563Y-11274174D02*
X16563039Y-11264650D01*
X16563039Y-11264650D02*
X16543991Y-11236079D01*
X16543991Y-11236079D02*
X16534468Y-11217031D01*
X16534468Y-11217031D02*
X16524944Y-11188460D01*
X16524944Y-11188460D02*
X16515420Y-11140841D01*
X16515420Y-11140841D02*
X16515420Y-11102746D01*
X16515420Y-11102746D02*
X16524944Y-11055127D01*
X16524944Y-11055127D02*
X16534468Y-11026555D01*
X16534468Y-11026555D02*
X16543991Y-11007508D01*
X16543991Y-11007508D02*
X16563039Y-10978936D01*
X16563039Y-10978936D02*
X16572563Y-10969412D01*
X16677325Y-11083698D02*
X16658277Y-11074174D01*
X16658277Y-11074174D02*
X16648753Y-11064650D01*
X16648753Y-11064650D02*
X16639229Y-11045603D01*
X16639229Y-11045603D02*
X16639229Y-11036079D01*
X16639229Y-11036079D02*
X16648753Y-11017031D01*
X16648753Y-11017031D02*
X16658277Y-11007508D01*
X16658277Y-11007508D02*
X16677325Y-10997984D01*
X16677325Y-10997984D02*
X16715420Y-10997984D01*
X16715420Y-10997984D02*
X16734468Y-11007508D01*
X16734468Y-11007508D02*
X16743991Y-11017031D01*
X16743991Y-11017031D02*
X16753515Y-11036079D01*
X16753515Y-11036079D02*
X16753515Y-11045603D01*
X16753515Y-11045603D02*
X16743991Y-11064650D01*
X16743991Y-11064650D02*
X16734468Y-11074174D01*
X16734468Y-11074174D02*
X16715420Y-11083698D01*
X16715420Y-11083698D02*
X16677325Y-11083698D01*
X16677325Y-11083698D02*
X16658277Y-11093222D01*
X16658277Y-11093222D02*
X16648753Y-11102746D01*
X16648753Y-11102746D02*
X16639229Y-11121793D01*
X16639229Y-11121793D02*
X16639229Y-11159889D01*
X16639229Y-11159889D02*
X16648753Y-11178936D01*
X16648753Y-11178936D02*
X16658277Y-11188460D01*
X16658277Y-11188460D02*
X16677325Y-11197984D01*
X16677325Y-11197984D02*
X16715420Y-11197984D01*
X16715420Y-11197984D02*
X16734468Y-11188460D01*
X16734468Y-11188460D02*
X16743991Y-11178936D01*
X16743991Y-11178936D02*
X16753515Y-11159889D01*
X16753515Y-11159889D02*
X16753515Y-11121793D01*
X16753515Y-11121793D02*
X16743991Y-11102746D01*
X16743991Y-11102746D02*
X16734468Y-11093222D01*
X16734468Y-11093222D02*
X16715420Y-11083698D01*
X16991611Y-11197984D02*
X16991611Y-10997984D01*
X17077325Y-11197984D02*
X17077325Y-11093222D01*
X17077325Y-11093222D02*
X17067801Y-11074174D01*
X17067801Y-11074174D02*
X17048753Y-11064650D01*
X17048753Y-11064650D02*
X17020182Y-11064650D01*
X17020182Y-11064650D02*
X17001134Y-11074174D01*
X17001134Y-11074174D02*
X16991611Y-11083698D01*
X17201134Y-11197984D02*
X17182087Y-11188460D01*
X17182087Y-11188460D02*
X17172563Y-11178936D01*
X17172563Y-11178936D02*
X17163039Y-11159889D01*
X17163039Y-11159889D02*
X17163039Y-11102746D01*
X17163039Y-11102746D02*
X17172563Y-11083698D01*
X17172563Y-11083698D02*
X17182087Y-11074174D01*
X17182087Y-11074174D02*
X17201134Y-11064650D01*
X17201134Y-11064650D02*
X17229706Y-11064650D01*
X17229706Y-11064650D02*
X17248753Y-11074174D01*
X17248753Y-11074174D02*
X17258277Y-11083698D01*
X17258277Y-11083698D02*
X17267801Y-11102746D01*
X17267801Y-11102746D02*
X17267801Y-11159889D01*
X17267801Y-11159889D02*
X17258277Y-11178936D01*
X17258277Y-11178936D02*
X17248753Y-11188460D01*
X17248753Y-11188460D02*
X17229706Y-11197984D01*
X17229706Y-11197984D02*
X17201134Y-11197984D01*
X17382087Y-11197984D02*
X17363039Y-11188460D01*
X17363039Y-11188460D02*
X17353515Y-11169412D01*
X17353515Y-11169412D02*
X17353515Y-10997984D01*
X17534468Y-11188460D02*
X17515420Y-11197984D01*
X17515420Y-11197984D02*
X17477325Y-11197984D01*
X17477325Y-11197984D02*
X17458277Y-11188460D01*
X17458277Y-11188460D02*
X17448753Y-11169412D01*
X17448753Y-11169412D02*
X17448753Y-11093222D01*
X17448753Y-11093222D02*
X17458277Y-11074174D01*
X17458277Y-11074174D02*
X17477325Y-11064650D01*
X17477325Y-11064650D02*
X17515420Y-11064650D01*
X17515420Y-11064650D02*
X17534468Y-11074174D01*
X17534468Y-11074174D02*
X17543992Y-11093222D01*
X17543992Y-11093222D02*
X17543992Y-11112270D01*
X17543992Y-11112270D02*
X17448753Y-11131317D01*
X17620182Y-11188460D02*
X17639230Y-11197984D01*
X17639230Y-11197984D02*
X17677325Y-11197984D01*
X17677325Y-11197984D02*
X17696373Y-11188460D01*
X17696373Y-11188460D02*
X17705896Y-11169412D01*
X17705896Y-11169412D02*
X17705896Y-11159889D01*
X17705896Y-11159889D02*
X17696373Y-11140841D01*
X17696373Y-11140841D02*
X17677325Y-11131317D01*
X17677325Y-11131317D02*
X17648753Y-11131317D01*
X17648753Y-11131317D02*
X17629706Y-11121793D01*
X17629706Y-11121793D02*
X17620182Y-11102746D01*
X17620182Y-11102746D02*
X17620182Y-11093222D01*
X17620182Y-11093222D02*
X17629706Y-11074174D01*
X17629706Y-11074174D02*
X17648753Y-11064650D01*
X17648753Y-11064650D02*
X17677325Y-11064650D01*
X17677325Y-11064650D02*
X17696373Y-11074174D01*
X17772563Y-11274174D02*
X17782087Y-11264650D01*
X17782087Y-11264650D02*
X17801134Y-11236079D01*
X17801134Y-11236079D02*
X17810658Y-11217031D01*
X17810658Y-11217031D02*
X17820182Y-11188460D01*
X17820182Y-11188460D02*
X17829706Y-11140841D01*
X17829706Y-11140841D02*
X17829706Y-11102746D01*
X17829706Y-11102746D02*
X17820182Y-11055127D01*
X17820182Y-11055127D02*
X17810658Y-11026555D01*
X17810658Y-11026555D02*
X17801134Y-11007508D01*
X17801134Y-11007508D02*
X17782087Y-10978936D01*
X17782087Y-10978936D02*
X17772563Y-10969412D01*
M02*
