M48
; DRILL file {KiCad 9.0.7+1} date 2026-02-23T17:06:25+0100
; FORMAT={-:-/ absolute / inch / decimal}
; #@! TF.CreationDate,2026-02-23T17:06:25+01:00
; #@! TF.GenerationSoftware,Kicad,Pcbnew,9.0.7+1
; #@! TF.FileFunction,Plated,1,2,PTH
FMAT,2
INCH
; #@! TA.AperFunction,Plated,PTH,ViaDrill
T1C0.0157
; #@! TA.AperFunction,Plated,PTH,ComponentDrill
T2C0.0394
%
G90
G05
T1
X5.1772Y-3.7303
X5.1772Y-3.8287
X5.1772Y-3.9272
X5.1787Y-3.6295
X5.2343Y-3.7913
X5.2663Y-3.5797
X5.2663Y-3.9797
X5.2961Y-3.7441
X5.3122Y-3.8717
X5.3346Y-3.6417
X5.4476Y-3.9173
X5.502Y-3.6417
X5.5283Y-3.878
X5.5559Y-3.7657
X5.5559Y-3.8051
X5.5763Y-3.5797
X5.5763Y-3.9797
X5.6594Y-3.6319
X5.6594Y-3.7295
X5.6594Y-3.8295
X5.663Y-3.9295
T2
X5.1181Y-3.6295
X5.1181Y-3.7295
X5.1181Y-3.8295
X5.1181Y-3.9295
X5.7181Y-3.6295
X5.7181Y-3.7295
X5.7181Y-3.8295
X5.7181Y-3.9295
M30
