%TF.GenerationSoftware,KiCad,Pcbnew,9.0.5+1*%
%TF.CreationDate,2025-11-07T12:29:22+01:00*%
%TF.ProjectId,ts17-tropic01-mini,74733137-2d74-4726-9f70-696330312d6d,rev?*%
%TF.SameCoordinates,Original*%
%TF.FileFunction,Copper,L2,Bot*%
%TF.FilePolarity,Positive*%
%FSLAX46Y46*%
G04 Gerber Fmt 4.6, Leading zero omitted, Abs format (unit mm)*
G04 Created by KiCad (PCBNEW 9.0.5+1) date 2025-11-07 12:29:22*
%MOMM*%
%LPD*%
G01*
G04 APERTURE LIST*
%TA.AperFunction,SMDPad,CuDef*%
%ADD10R,2.000000X1.700000*%
%TD*%
%TA.AperFunction,CastellatedPad*%
%ADD11R,1.000000X1.700000*%
%TD*%
%TA.AperFunction,ViaPad*%
%ADD12C,0.800000*%
%TD*%
%TA.AperFunction,Conductor*%
%ADD13C,0.200000*%
%TD*%
G04 APERTURE END LIST*
D10*
%TO.P,J2,1,Pin_1*%
%TO.N,/SPI_MOSI*%
X131000000Y-92190000D03*
D11*
X130500000Y-92190000D03*
D10*
%TO.P,J2,2,Pin_2*%
%TO.N,/SPI_MISO*%
X131000000Y-94730000D03*
D11*
X130500000Y-94730000D03*
D10*
%TO.P,J2,3,Pin_3*%
%TO.N,/SPI_SCK*%
X131000000Y-97270000D03*
D11*
X130500000Y-97270000D03*
D10*
%TO.P,J2,4,Pin_4*%
%TO.N,/SPI_CS*%
X131000000Y-99810000D03*
D11*
X130500000Y-99810000D03*
%TD*%
D10*
%TO.P,J1,1,Pin_1*%
%TO.N,VCC*%
X143000000Y-99810000D03*
D11*
X143500000Y-99810000D03*
D10*
%TO.P,J1,2,Pin_2*%
%TO.N,GND*%
X143000000Y-97270000D03*
D11*
X143500000Y-97270000D03*
D10*
%TO.P,J1,3,Pin_3*%
X143000000Y-94730000D03*
D11*
X143500000Y-94730000D03*
D10*
%TO.P,J1,4,Pin_4*%
%TO.N,/GPO*%
X143000000Y-92190000D03*
D11*
X143500000Y-92190000D03*
%TD*%
D12*
%TO.N,VCC*%
X142900000Y-99810000D03*
%TO.N,GND*%
X134310000Y-98340000D03*
X141018000Y-101084000D03*
X141018000Y-90924000D03*
X142900000Y-94730000D03*
X142900000Y-97270000D03*
X139800000Y-98500000D03*
X140500000Y-96650000D03*
X140500000Y-95650000D03*
X134830000Y-92680000D03*
X133144000Y-101084000D03*
X139170000Y-92670000D03*
X133144000Y-90924000D03*
X133900000Y-95100000D03*
%TO.N,/GPO*%
X142900000Y-92190000D03*
%TO.N,/SPI_SCK*%
X131100000Y-97270000D03*
%TO.N,/SPI_CS*%
X131100000Y-99810000D03*
%TO.N,/SPI_MOSI*%
X131100000Y-92190000D03*
%TO.N,/SPI_MISO*%
X132700130Y-96668485D03*
X137750000Y-99500000D03*
X131100000Y-94730000D03*
%TD*%
D13*
%TO.N,/SPI_MISO*%
X134918485Y-96668485D02*
X137750000Y-99500000D01*
X131000000Y-94730000D02*
X131010000Y-94730000D01*
X132700130Y-96668485D02*
X134918485Y-96668485D01*
%TD*%
%TA.AperFunction,Conductor*%
%TO.N,GND*%
G36*
X143658691Y-90319407D02*
G01*
X143694655Y-90368907D01*
X143699500Y-90399500D01*
X143699500Y-91040500D01*
X143680593Y-91098691D01*
X143631093Y-91134655D01*
X143600500Y-91139500D01*
X141980252Y-91139500D01*
X141980251Y-91139500D01*
X141980241Y-91139501D01*
X141921772Y-91151132D01*
X141921766Y-91151134D01*
X141855451Y-91195445D01*
X141855445Y-91195451D01*
X141811134Y-91261766D01*
X141811132Y-91261772D01*
X141799501Y-91320241D01*
X141799500Y-91320253D01*
X141799500Y-93059746D01*
X141799501Y-93059758D01*
X141811132Y-93118227D01*
X141811133Y-93118231D01*
X141855448Y-93184552D01*
X141921769Y-93228867D01*
X141966231Y-93237711D01*
X141980241Y-93240498D01*
X141980246Y-93240498D01*
X141980252Y-93240500D01*
X142980252Y-93240500D01*
X143600500Y-93240500D01*
X143615412Y-93245345D01*
X143631093Y-93245345D01*
X143643778Y-93254561D01*
X143658691Y-93259407D01*
X143667907Y-93272092D01*
X143680593Y-93281309D01*
X143685438Y-93296221D01*
X143694655Y-93308907D01*
X143699500Y-93339500D01*
X143699500Y-93489493D01*
X143680593Y-93547684D01*
X143670504Y-93559497D01*
X143650000Y-93580001D01*
X143650000Y-94372894D01*
X143599901Y-94422993D01*
X143534075Y-94537007D01*
X143500000Y-94664174D01*
X143500000Y-94795826D01*
X143534075Y-94922993D01*
X143599901Y-95037007D01*
X143650000Y-95087106D01*
X143650000Y-95879998D01*
X143670504Y-95900502D01*
X143674130Y-95907619D01*
X143680593Y-95912315D01*
X143687756Y-95934363D01*
X143698281Y-95955019D01*
X143699500Y-95970506D01*
X143699500Y-96029493D01*
X143680593Y-96087684D01*
X143670504Y-96099497D01*
X143650000Y-96120001D01*
X143650000Y-96912894D01*
X143599901Y-96962993D01*
X143534075Y-97077007D01*
X143500000Y-97204174D01*
X143500000Y-97335826D01*
X143534075Y-97462993D01*
X143599901Y-97577007D01*
X143650000Y-97627106D01*
X143650000Y-98419998D01*
X143670504Y-98440502D01*
X143674130Y-98447619D01*
X143680593Y-98452315D01*
X143687756Y-98474363D01*
X143698281Y-98495019D01*
X143699500Y-98510506D01*
X143699500Y-98660500D01*
X143680593Y-98718691D01*
X143631093Y-98754655D01*
X143600500Y-98759500D01*
X141980252Y-98759500D01*
X141980251Y-98759500D01*
X141980241Y-98759501D01*
X141921772Y-98771132D01*
X141921766Y-98771134D01*
X141855451Y-98815445D01*
X141855445Y-98815451D01*
X141811134Y-98881766D01*
X141811132Y-98881772D01*
X141799501Y-98940241D01*
X141799500Y-98940253D01*
X141799500Y-100679746D01*
X141799501Y-100679758D01*
X141811132Y-100738227D01*
X141811133Y-100738231D01*
X141855448Y-100804552D01*
X141921769Y-100848867D01*
X141966231Y-100857711D01*
X141980241Y-100860498D01*
X141980246Y-100860498D01*
X141980252Y-100860500D01*
X142980252Y-100860500D01*
X143600500Y-100860500D01*
X143658691Y-100879407D01*
X143694655Y-100928907D01*
X143699500Y-100959500D01*
X143699500Y-101600500D01*
X143680593Y-101658691D01*
X143631093Y-101694655D01*
X143600500Y-101699500D01*
X130399500Y-101699500D01*
X130341309Y-101680593D01*
X130305345Y-101631093D01*
X130300500Y-101600500D01*
X130300500Y-100959500D01*
X130319407Y-100901309D01*
X130368907Y-100865345D01*
X130399500Y-100860500D01*
X132019747Y-100860500D01*
X132019748Y-100860500D01*
X132078231Y-100848867D01*
X132144552Y-100804552D01*
X132188867Y-100738231D01*
X132200500Y-100679748D01*
X132200500Y-98940252D01*
X132188867Y-98881769D01*
X132144552Y-98815448D01*
X132144548Y-98815445D01*
X132078233Y-98771134D01*
X132078231Y-98771133D01*
X132078228Y-98771132D01*
X132078227Y-98771132D01*
X132019758Y-98759501D01*
X132019748Y-98759500D01*
X132019747Y-98759500D01*
X130399500Y-98759500D01*
X130341309Y-98740593D01*
X130305345Y-98691093D01*
X130300500Y-98660500D01*
X130300500Y-98419500D01*
X130319407Y-98361309D01*
X130368907Y-98325345D01*
X130399500Y-98320500D01*
X132019747Y-98320500D01*
X132019748Y-98320500D01*
X132078231Y-98308867D01*
X132144552Y-98264552D01*
X132188867Y-98198231D01*
X132200500Y-98139748D01*
X132200500Y-97244894D01*
X132219407Y-97186703D01*
X132268907Y-97150739D01*
X132330093Y-97150739D01*
X132348991Y-97159152D01*
X132468346Y-97228062D01*
X132621073Y-97268985D01*
X132621075Y-97268985D01*
X132779185Y-97268985D01*
X132779187Y-97268985D01*
X132931914Y-97228062D01*
X133068846Y-97149005D01*
X133180650Y-97037201D01*
X133191456Y-97018485D01*
X133236926Y-96977544D01*
X133277192Y-96968985D01*
X134753006Y-96968985D01*
X134811197Y-96987892D01*
X134823010Y-96997981D01*
X137129470Y-99304441D01*
X137157247Y-99358958D01*
X137155093Y-99400064D01*
X137149500Y-99420943D01*
X137149500Y-99579057D01*
X137190423Y-99731784D01*
X137269480Y-99868716D01*
X137381284Y-99980520D01*
X137518216Y-100059577D01*
X137670943Y-100100500D01*
X137670945Y-100100500D01*
X137829055Y-100100500D01*
X137829057Y-100100500D01*
X137981784Y-100059577D01*
X138118716Y-99980520D01*
X138230520Y-99868716D01*
X138309577Y-99731784D01*
X138350500Y-99579057D01*
X138350500Y-99420943D01*
X138309577Y-99268216D01*
X138230520Y-99131284D01*
X138118716Y-99019480D01*
X137981784Y-98940423D01*
X137829057Y-98899500D01*
X137670943Y-98899500D01*
X137662027Y-98901889D01*
X137650064Y-98905094D01*
X137588963Y-98901889D01*
X137554441Y-98879470D01*
X136839762Y-98164791D01*
X136094972Y-97420001D01*
X141700001Y-97420001D01*
X141700001Y-98164791D01*
X141702909Y-98189874D01*
X141748213Y-98292477D01*
X141827522Y-98371786D01*
X141930127Y-98417090D01*
X141955203Y-98419999D01*
X142849998Y-98419999D01*
X142850000Y-98419998D01*
X142850000Y-97420001D01*
X142849999Y-97420000D01*
X141700002Y-97420000D01*
X141700001Y-97420001D01*
X136094972Y-97420001D01*
X135102996Y-96428025D01*
X135102993Y-96428023D01*
X135034477Y-96388465D01*
X135034473Y-96388463D01*
X134984983Y-96375202D01*
X141700000Y-96375202D01*
X141700000Y-97119999D01*
X141700001Y-97120000D01*
X142849999Y-97120000D01*
X142850000Y-97119999D01*
X142850000Y-96120001D01*
X143150000Y-96120001D01*
X143150000Y-98419998D01*
X143150001Y-98419999D01*
X143349999Y-98419999D01*
X143350000Y-98419998D01*
X143350000Y-96120001D01*
X143349999Y-96120000D01*
X143150001Y-96120000D01*
X143150000Y-96120001D01*
X142850000Y-96120001D01*
X142849999Y-96120000D01*
X141955210Y-96120000D01*
X141955208Y-96120001D01*
X141930125Y-96122909D01*
X141827522Y-96168213D01*
X141748213Y-96247522D01*
X141702909Y-96350127D01*
X141700000Y-96375202D01*
X134984983Y-96375202D01*
X134958049Y-96367985D01*
X134958047Y-96367985D01*
X133277192Y-96367985D01*
X133219001Y-96349078D01*
X133191456Y-96318485D01*
X133180651Y-96299771D01*
X133180650Y-96299769D01*
X133068846Y-96187965D01*
X132931914Y-96108908D01*
X132779187Y-96067985D01*
X132621073Y-96067985D01*
X132468346Y-96108908D01*
X132331411Y-96187967D01*
X132261575Y-96257803D01*
X132207058Y-96285580D01*
X132146626Y-96276008D01*
X132136570Y-96270114D01*
X132078233Y-96231134D01*
X132078231Y-96231133D01*
X132078228Y-96231132D01*
X132078227Y-96231132D01*
X132019758Y-96219501D01*
X132019748Y-96219500D01*
X132019747Y-96219500D01*
X130399500Y-96219500D01*
X130341309Y-96200593D01*
X130305345Y-96151093D01*
X130300500Y-96120500D01*
X130300500Y-95879500D01*
X130319407Y-95821309D01*
X130368907Y-95785345D01*
X130399500Y-95780500D01*
X132019747Y-95780500D01*
X132019748Y-95780500D01*
X132078231Y-95768867D01*
X132144552Y-95724552D01*
X132188867Y-95658231D01*
X132200500Y-95599748D01*
X132200500Y-94880001D01*
X141700001Y-94880001D01*
X141700001Y-95624791D01*
X141702909Y-95649874D01*
X141748213Y-95752477D01*
X141827522Y-95831786D01*
X141930127Y-95877090D01*
X141955203Y-95879999D01*
X142849998Y-95879999D01*
X142850000Y-95879998D01*
X142850000Y-94880001D01*
X142849999Y-94880000D01*
X141700002Y-94880000D01*
X141700001Y-94880001D01*
X132200500Y-94880001D01*
X132200500Y-93860252D01*
X132195517Y-93835202D01*
X141700000Y-93835202D01*
X141700000Y-94579999D01*
X141700001Y-94580000D01*
X142849999Y-94580000D01*
X142850000Y-94579999D01*
X142850000Y-93580001D01*
X143150000Y-93580001D01*
X143150000Y-95879998D01*
X143150001Y-95879999D01*
X143349999Y-95879999D01*
X143350000Y-95879998D01*
X143350000Y-93580001D01*
X143349999Y-93580000D01*
X143150001Y-93580000D01*
X143150000Y-93580001D01*
X142850000Y-93580001D01*
X142849999Y-93580000D01*
X141955210Y-93580000D01*
X141955208Y-93580001D01*
X141930125Y-93582909D01*
X141827522Y-93628213D01*
X141748213Y-93707522D01*
X141702909Y-93810127D01*
X141700000Y-93835202D01*
X132195517Y-93835202D01*
X132188867Y-93801769D01*
X132144552Y-93735448D01*
X132144548Y-93735445D01*
X132078233Y-93691134D01*
X132078231Y-93691133D01*
X132078228Y-93691132D01*
X132078227Y-93691132D01*
X132019758Y-93679501D01*
X132019748Y-93679500D01*
X132019747Y-93679500D01*
X130399500Y-93679500D01*
X130341309Y-93660593D01*
X130305345Y-93611093D01*
X130300500Y-93580500D01*
X130300500Y-93339500D01*
X130319407Y-93281309D01*
X130368907Y-93245345D01*
X130399500Y-93240500D01*
X132019747Y-93240500D01*
X132019748Y-93240500D01*
X132078231Y-93228867D01*
X132144552Y-93184552D01*
X132188867Y-93118231D01*
X132200500Y-93059748D01*
X132200500Y-91320252D01*
X132188867Y-91261769D01*
X132144552Y-91195448D01*
X132144548Y-91195445D01*
X132078233Y-91151134D01*
X132078231Y-91151133D01*
X132078228Y-91151132D01*
X132078227Y-91151132D01*
X132019758Y-91139501D01*
X132019748Y-91139500D01*
X132019747Y-91139500D01*
X130399500Y-91139500D01*
X130341309Y-91120593D01*
X130305345Y-91071093D01*
X130300500Y-91040500D01*
X130300500Y-90399500D01*
X130319407Y-90341309D01*
X130368907Y-90305345D01*
X130399500Y-90300500D01*
X143600500Y-90300500D01*
X143658691Y-90319407D01*
G37*
%TD.AperFunction*%
%TD*%
M02*
