%TF.GenerationSoftware,KiCad,Pcbnew,9.0.7+1*%
%TF.CreationDate,2026-02-23T17:06:27+01:00*%
%TF.ProjectId,ts17-tropic01-mini,74733137-2d74-4726-9f70-696330312d6d,rev?*%
%TF.SameCoordinates,Original*%
%TF.FileFunction,Legend,Top*%
%TF.FilePolarity,Positive*%
%FSLAX46Y46*%
G04 Gerber Fmt 4.6, Leading zero omitted, Abs format (unit mm)*
G04 Created by KiCad (PCBNEW 9.0.7+1) date 2026-02-23 17:06:27*
%MOMM*%
%LPD*%
G01*
G04 APERTURE LIST*
%ADD10C,0.150000*%
%ADD11C,0.120000*%
%ADD12C,0.000000*%
G04 APERTURE END LIST*
D10*
X132085413Y-97822200D02*
X132199699Y-97869819D01*
X132199699Y-97869819D02*
X132390175Y-97869819D01*
X132390175Y-97869819D02*
X132466366Y-97822200D01*
X132466366Y-97822200D02*
X132504461Y-97774580D01*
X132504461Y-97774580D02*
X132542556Y-97679342D01*
X132542556Y-97679342D02*
X132542556Y-97584104D01*
X132542556Y-97584104D02*
X132504461Y-97488866D01*
X132504461Y-97488866D02*
X132466366Y-97441247D01*
X132466366Y-97441247D02*
X132390175Y-97393628D01*
X132390175Y-97393628D02*
X132237794Y-97346009D01*
X132237794Y-97346009D02*
X132161604Y-97298390D01*
X132161604Y-97298390D02*
X132123509Y-97250771D01*
X132123509Y-97250771D02*
X132085413Y-97155533D01*
X132085413Y-97155533D02*
X132085413Y-97060295D01*
X132085413Y-97060295D02*
X132123509Y-96965057D01*
X132123509Y-96965057D02*
X132161604Y-96917438D01*
X132161604Y-96917438D02*
X132237794Y-96869819D01*
X132237794Y-96869819D02*
X132428271Y-96869819D01*
X132428271Y-96869819D02*
X132542556Y-96917438D01*
X133342557Y-97774580D02*
X133304461Y-97822200D01*
X133304461Y-97822200D02*
X133190176Y-97869819D01*
X133190176Y-97869819D02*
X133113985Y-97869819D01*
X133113985Y-97869819D02*
X132999699Y-97822200D01*
X132999699Y-97822200D02*
X132923509Y-97726961D01*
X132923509Y-97726961D02*
X132885414Y-97631723D01*
X132885414Y-97631723D02*
X132847318Y-97441247D01*
X132847318Y-97441247D02*
X132847318Y-97298390D01*
X132847318Y-97298390D02*
X132885414Y-97107914D01*
X132885414Y-97107914D02*
X132923509Y-97012676D01*
X132923509Y-97012676D02*
X132999699Y-96917438D01*
X132999699Y-96917438D02*
X133113985Y-96869819D01*
X133113985Y-96869819D02*
X133190176Y-96869819D01*
X133190176Y-96869819D02*
X133304461Y-96917438D01*
X133304461Y-96917438D02*
X133342557Y-96965057D01*
X133685414Y-97869819D02*
X133685414Y-96869819D01*
X134142557Y-97869819D02*
X133799699Y-97298390D01*
X134142557Y-96869819D02*
X133685414Y-97441247D01*
X131985413Y-95322200D02*
X132099699Y-95369819D01*
X132099699Y-95369819D02*
X132290175Y-95369819D01*
X132290175Y-95369819D02*
X132366366Y-95322200D01*
X132366366Y-95322200D02*
X132404461Y-95274580D01*
X132404461Y-95274580D02*
X132442556Y-95179342D01*
X132442556Y-95179342D02*
X132442556Y-95084104D01*
X132442556Y-95084104D02*
X132404461Y-94988866D01*
X132404461Y-94988866D02*
X132366366Y-94941247D01*
X132366366Y-94941247D02*
X132290175Y-94893628D01*
X132290175Y-94893628D02*
X132137794Y-94846009D01*
X132137794Y-94846009D02*
X132061604Y-94798390D01*
X132061604Y-94798390D02*
X132023509Y-94750771D01*
X132023509Y-94750771D02*
X131985413Y-94655533D01*
X131985413Y-94655533D02*
X131985413Y-94560295D01*
X131985413Y-94560295D02*
X132023509Y-94465057D01*
X132023509Y-94465057D02*
X132061604Y-94417438D01*
X132061604Y-94417438D02*
X132137794Y-94369819D01*
X132137794Y-94369819D02*
X132328271Y-94369819D01*
X132328271Y-94369819D02*
X132442556Y-94417438D01*
X132785414Y-95369819D02*
X132785414Y-94369819D01*
X132785414Y-94369819D02*
X132975890Y-94369819D01*
X132975890Y-94369819D02*
X133090176Y-94417438D01*
X133090176Y-94417438D02*
X133166366Y-94512676D01*
X133166366Y-94512676D02*
X133204461Y-94607914D01*
X133204461Y-94607914D02*
X133242557Y-94798390D01*
X133242557Y-94798390D02*
X133242557Y-94941247D01*
X133242557Y-94941247D02*
X133204461Y-95131723D01*
X133204461Y-95131723D02*
X133166366Y-95226961D01*
X133166366Y-95226961D02*
X133090176Y-95322200D01*
X133090176Y-95322200D02*
X132975890Y-95369819D01*
X132975890Y-95369819D02*
X132785414Y-95369819D01*
X133737795Y-94369819D02*
X133890176Y-94369819D01*
X133890176Y-94369819D02*
X133966366Y-94417438D01*
X133966366Y-94417438D02*
X134042557Y-94512676D01*
X134042557Y-94512676D02*
X134080652Y-94703152D01*
X134080652Y-94703152D02*
X134080652Y-95036485D01*
X134080652Y-95036485D02*
X134042557Y-95226961D01*
X134042557Y-95226961D02*
X133966366Y-95322200D01*
X133966366Y-95322200D02*
X133890176Y-95369819D01*
X133890176Y-95369819D02*
X133737795Y-95369819D01*
X133737795Y-95369819D02*
X133661604Y-95322200D01*
X133661604Y-95322200D02*
X133585414Y-95226961D01*
X133585414Y-95226961D02*
X133547318Y-95036485D01*
X133547318Y-95036485D02*
X133547318Y-94703152D01*
X133547318Y-94703152D02*
X133585414Y-94512676D01*
X133585414Y-94512676D02*
X133661604Y-94417438D01*
X133661604Y-94417438D02*
X133737795Y-94369819D01*
X132580652Y-100074580D02*
X132542556Y-100122200D01*
X132542556Y-100122200D02*
X132428271Y-100169819D01*
X132428271Y-100169819D02*
X132352080Y-100169819D01*
X132352080Y-100169819D02*
X132237794Y-100122200D01*
X132237794Y-100122200D02*
X132161604Y-100026961D01*
X132161604Y-100026961D02*
X132123509Y-99931723D01*
X132123509Y-99931723D02*
X132085413Y-99741247D01*
X132085413Y-99741247D02*
X132085413Y-99598390D01*
X132085413Y-99598390D02*
X132123509Y-99407914D01*
X132123509Y-99407914D02*
X132161604Y-99312676D01*
X132161604Y-99312676D02*
X132237794Y-99217438D01*
X132237794Y-99217438D02*
X132352080Y-99169819D01*
X132352080Y-99169819D02*
X132428271Y-99169819D01*
X132428271Y-99169819D02*
X132542556Y-99217438D01*
X132542556Y-99217438D02*
X132580652Y-99265057D01*
X132885413Y-100122200D02*
X132999699Y-100169819D01*
X132999699Y-100169819D02*
X133190175Y-100169819D01*
X133190175Y-100169819D02*
X133266366Y-100122200D01*
X133266366Y-100122200D02*
X133304461Y-100074580D01*
X133304461Y-100074580D02*
X133342556Y-99979342D01*
X133342556Y-99979342D02*
X133342556Y-99884104D01*
X133342556Y-99884104D02*
X133304461Y-99788866D01*
X133304461Y-99788866D02*
X133266366Y-99741247D01*
X133266366Y-99741247D02*
X133190175Y-99693628D01*
X133190175Y-99693628D02*
X133037794Y-99646009D01*
X133037794Y-99646009D02*
X132961604Y-99598390D01*
X132961604Y-99598390D02*
X132923509Y-99550771D01*
X132923509Y-99550771D02*
X132885413Y-99455533D01*
X132885413Y-99455533D02*
X132885413Y-99360295D01*
X132885413Y-99360295D02*
X132923509Y-99265057D01*
X132923509Y-99265057D02*
X132961604Y-99217438D01*
X132961604Y-99217438D02*
X133037794Y-99169819D01*
X133037794Y-99169819D02*
X133228271Y-99169819D01*
X133228271Y-99169819D02*
X133342556Y-99217438D01*
X133685414Y-100169819D02*
X133685414Y-99169819D01*
X133685414Y-99169819D02*
X134142557Y-100169819D01*
X134142557Y-100169819D02*
X134142557Y-99169819D01*
X134213922Y-100569819D02*
X134785350Y-100569819D01*
X134499636Y-101569819D02*
X134499636Y-100569819D01*
X135690112Y-101569819D02*
X135356779Y-101093628D01*
X135118684Y-101569819D02*
X135118684Y-100569819D01*
X135118684Y-100569819D02*
X135499636Y-100569819D01*
X135499636Y-100569819D02*
X135594874Y-100617438D01*
X135594874Y-100617438D02*
X135642493Y-100665057D01*
X135642493Y-100665057D02*
X135690112Y-100760295D01*
X135690112Y-100760295D02*
X135690112Y-100903152D01*
X135690112Y-100903152D02*
X135642493Y-100998390D01*
X135642493Y-100998390D02*
X135594874Y-101046009D01*
X135594874Y-101046009D02*
X135499636Y-101093628D01*
X135499636Y-101093628D02*
X135118684Y-101093628D01*
X136309160Y-100569819D02*
X136499636Y-100569819D01*
X136499636Y-100569819D02*
X136594874Y-100617438D01*
X136594874Y-100617438D02*
X136690112Y-100712676D01*
X136690112Y-100712676D02*
X136737731Y-100903152D01*
X136737731Y-100903152D02*
X136737731Y-101236485D01*
X136737731Y-101236485D02*
X136690112Y-101426961D01*
X136690112Y-101426961D02*
X136594874Y-101522200D01*
X136594874Y-101522200D02*
X136499636Y-101569819D01*
X136499636Y-101569819D02*
X136309160Y-101569819D01*
X136309160Y-101569819D02*
X136213922Y-101522200D01*
X136213922Y-101522200D02*
X136118684Y-101426961D01*
X136118684Y-101426961D02*
X136071065Y-101236485D01*
X136071065Y-101236485D02*
X136071065Y-100903152D01*
X136071065Y-100903152D02*
X136118684Y-100712676D01*
X136118684Y-100712676D02*
X136213922Y-100617438D01*
X136213922Y-100617438D02*
X136309160Y-100569819D01*
X137166303Y-101569819D02*
X137166303Y-100569819D01*
X137166303Y-100569819D02*
X137547255Y-100569819D01*
X137547255Y-100569819D02*
X137642493Y-100617438D01*
X137642493Y-100617438D02*
X137690112Y-100665057D01*
X137690112Y-100665057D02*
X137737731Y-100760295D01*
X137737731Y-100760295D02*
X137737731Y-100903152D01*
X137737731Y-100903152D02*
X137690112Y-100998390D01*
X137690112Y-100998390D02*
X137642493Y-101046009D01*
X137642493Y-101046009D02*
X137547255Y-101093628D01*
X137547255Y-101093628D02*
X137166303Y-101093628D01*
X138166303Y-101569819D02*
X138166303Y-100569819D01*
X139213921Y-101474580D02*
X139166302Y-101522200D01*
X139166302Y-101522200D02*
X139023445Y-101569819D01*
X139023445Y-101569819D02*
X138928207Y-101569819D01*
X138928207Y-101569819D02*
X138785350Y-101522200D01*
X138785350Y-101522200D02*
X138690112Y-101426961D01*
X138690112Y-101426961D02*
X138642493Y-101331723D01*
X138642493Y-101331723D02*
X138594874Y-101141247D01*
X138594874Y-101141247D02*
X138594874Y-100998390D01*
X138594874Y-100998390D02*
X138642493Y-100807914D01*
X138642493Y-100807914D02*
X138690112Y-100712676D01*
X138690112Y-100712676D02*
X138785350Y-100617438D01*
X138785350Y-100617438D02*
X138928207Y-100569819D01*
X138928207Y-100569819D02*
X139023445Y-100569819D01*
X139023445Y-100569819D02*
X139166302Y-100617438D01*
X139166302Y-100617438D02*
X139213921Y-100665057D01*
X139832969Y-100569819D02*
X139928207Y-100569819D01*
X139928207Y-100569819D02*
X140023445Y-100617438D01*
X140023445Y-100617438D02*
X140071064Y-100665057D01*
X140071064Y-100665057D02*
X140118683Y-100760295D01*
X140118683Y-100760295D02*
X140166302Y-100950771D01*
X140166302Y-100950771D02*
X140166302Y-101188866D01*
X140166302Y-101188866D02*
X140118683Y-101379342D01*
X140118683Y-101379342D02*
X140071064Y-101474580D01*
X140071064Y-101474580D02*
X140023445Y-101522200D01*
X140023445Y-101522200D02*
X139928207Y-101569819D01*
X139928207Y-101569819D02*
X139832969Y-101569819D01*
X139832969Y-101569819D02*
X139737731Y-101522200D01*
X139737731Y-101522200D02*
X139690112Y-101474580D01*
X139690112Y-101474580D02*
X139642493Y-101379342D01*
X139642493Y-101379342D02*
X139594874Y-101188866D01*
X139594874Y-101188866D02*
X139594874Y-100950771D01*
X139594874Y-100950771D02*
X139642493Y-100760295D01*
X139642493Y-100760295D02*
X139690112Y-100665057D01*
X139690112Y-100665057D02*
X139737731Y-100617438D01*
X139737731Y-100617438D02*
X139832969Y-100569819D01*
X141118683Y-101569819D02*
X140547255Y-101569819D01*
X140832969Y-101569819D02*
X140832969Y-100569819D01*
X140832969Y-100569819D02*
X140737731Y-100712676D01*
X140737731Y-100712676D02*
X140642493Y-100807914D01*
X140642493Y-100807914D02*
X140547255Y-100855533D01*
X142137438Y-96691792D02*
X142089819Y-96767982D01*
X142089819Y-96767982D02*
X142089819Y-96882268D01*
X142089819Y-96882268D02*
X142137438Y-96996554D01*
X142137438Y-96996554D02*
X142232676Y-97072744D01*
X142232676Y-97072744D02*
X142327914Y-97110839D01*
X142327914Y-97110839D02*
X142518390Y-97148935D01*
X142518390Y-97148935D02*
X142661247Y-97148935D01*
X142661247Y-97148935D02*
X142851723Y-97110839D01*
X142851723Y-97110839D02*
X142946961Y-97072744D01*
X142946961Y-97072744D02*
X143042200Y-96996554D01*
X143042200Y-96996554D02*
X143089819Y-96882268D01*
X143089819Y-96882268D02*
X143089819Y-96806077D01*
X143089819Y-96806077D02*
X143042200Y-96691792D01*
X143042200Y-96691792D02*
X142994580Y-96653696D01*
X142994580Y-96653696D02*
X142661247Y-96653696D01*
X142661247Y-96653696D02*
X142661247Y-96806077D01*
X143089819Y-96310839D02*
X142089819Y-96310839D01*
X142089819Y-96310839D02*
X143089819Y-95853696D01*
X143089819Y-95853696D02*
X142089819Y-95853696D01*
X143089819Y-95472744D02*
X142089819Y-95472744D01*
X142089819Y-95472744D02*
X142089819Y-95282268D01*
X142089819Y-95282268D02*
X142137438Y-95167982D01*
X142137438Y-95167982D02*
X142232676Y-95091792D01*
X142232676Y-95091792D02*
X142327914Y-95053697D01*
X142327914Y-95053697D02*
X142518390Y-95015601D01*
X142518390Y-95015601D02*
X142661247Y-95015601D01*
X142661247Y-95015601D02*
X142851723Y-95053697D01*
X142851723Y-95053697D02*
X142946961Y-95091792D01*
X142946961Y-95091792D02*
X143042200Y-95167982D01*
X143042200Y-95167982D02*
X143089819Y-95282268D01*
X143089819Y-95282268D02*
X143089819Y-95472744D01*
X141144874Y-99219819D02*
X141411541Y-100219819D01*
X141411541Y-100219819D02*
X141678207Y-99219819D01*
X142402017Y-100124580D02*
X142363921Y-100172200D01*
X142363921Y-100172200D02*
X142249636Y-100219819D01*
X142249636Y-100219819D02*
X142173445Y-100219819D01*
X142173445Y-100219819D02*
X142059159Y-100172200D01*
X142059159Y-100172200D02*
X141982969Y-100076961D01*
X141982969Y-100076961D02*
X141944874Y-99981723D01*
X141944874Y-99981723D02*
X141906778Y-99791247D01*
X141906778Y-99791247D02*
X141906778Y-99648390D01*
X141906778Y-99648390D02*
X141944874Y-99457914D01*
X141944874Y-99457914D02*
X141982969Y-99362676D01*
X141982969Y-99362676D02*
X142059159Y-99267438D01*
X142059159Y-99267438D02*
X142173445Y-99219819D01*
X142173445Y-99219819D02*
X142249636Y-99219819D01*
X142249636Y-99219819D02*
X142363921Y-99267438D01*
X142363921Y-99267438D02*
X142402017Y-99315057D01*
X143202017Y-100124580D02*
X143163921Y-100172200D01*
X143163921Y-100172200D02*
X143049636Y-100219819D01*
X143049636Y-100219819D02*
X142973445Y-100219819D01*
X142973445Y-100219819D02*
X142859159Y-100172200D01*
X142859159Y-100172200D02*
X142782969Y-100076961D01*
X142782969Y-100076961D02*
X142744874Y-99981723D01*
X142744874Y-99981723D02*
X142706778Y-99791247D01*
X142706778Y-99791247D02*
X142706778Y-99648390D01*
X142706778Y-99648390D02*
X142744874Y-99457914D01*
X142744874Y-99457914D02*
X142782969Y-99362676D01*
X142782969Y-99362676D02*
X142859159Y-99267438D01*
X142859159Y-99267438D02*
X142973445Y-99219819D01*
X142973445Y-99219819D02*
X143049636Y-99219819D01*
X143049636Y-99219819D02*
X143163921Y-99267438D01*
X143163921Y-99267438D02*
X143202017Y-99315057D01*
X132085413Y-92722200D02*
X132199699Y-92769819D01*
X132199699Y-92769819D02*
X132390175Y-92769819D01*
X132390175Y-92769819D02*
X132466366Y-92722200D01*
X132466366Y-92722200D02*
X132504461Y-92674580D01*
X132504461Y-92674580D02*
X132542556Y-92579342D01*
X132542556Y-92579342D02*
X132542556Y-92484104D01*
X132542556Y-92484104D02*
X132504461Y-92388866D01*
X132504461Y-92388866D02*
X132466366Y-92341247D01*
X132466366Y-92341247D02*
X132390175Y-92293628D01*
X132390175Y-92293628D02*
X132237794Y-92246009D01*
X132237794Y-92246009D02*
X132161604Y-92198390D01*
X132161604Y-92198390D02*
X132123509Y-92150771D01*
X132123509Y-92150771D02*
X132085413Y-92055533D01*
X132085413Y-92055533D02*
X132085413Y-91960295D01*
X132085413Y-91960295D02*
X132123509Y-91865057D01*
X132123509Y-91865057D02*
X132161604Y-91817438D01*
X132161604Y-91817438D02*
X132237794Y-91769819D01*
X132237794Y-91769819D02*
X132428271Y-91769819D01*
X132428271Y-91769819D02*
X132542556Y-91817438D01*
X132885414Y-92769819D02*
X132885414Y-91769819D01*
X132885414Y-91769819D02*
X133075890Y-91769819D01*
X133075890Y-91769819D02*
X133190176Y-91817438D01*
X133190176Y-91817438D02*
X133266366Y-91912676D01*
X133266366Y-91912676D02*
X133304461Y-92007914D01*
X133304461Y-92007914D02*
X133342557Y-92198390D01*
X133342557Y-92198390D02*
X133342557Y-92341247D01*
X133342557Y-92341247D02*
X133304461Y-92531723D01*
X133304461Y-92531723D02*
X133266366Y-92626961D01*
X133266366Y-92626961D02*
X133190176Y-92722200D01*
X133190176Y-92722200D02*
X133075890Y-92769819D01*
X133075890Y-92769819D02*
X132885414Y-92769819D01*
X133685414Y-92769819D02*
X133685414Y-91769819D01*
X141328207Y-91917438D02*
X141252017Y-91869819D01*
X141252017Y-91869819D02*
X141137731Y-91869819D01*
X141137731Y-91869819D02*
X141023445Y-91917438D01*
X141023445Y-91917438D02*
X140947255Y-92012676D01*
X140947255Y-92012676D02*
X140909160Y-92107914D01*
X140909160Y-92107914D02*
X140871064Y-92298390D01*
X140871064Y-92298390D02*
X140871064Y-92441247D01*
X140871064Y-92441247D02*
X140909160Y-92631723D01*
X140909160Y-92631723D02*
X140947255Y-92726961D01*
X140947255Y-92726961D02*
X141023445Y-92822200D01*
X141023445Y-92822200D02*
X141137731Y-92869819D01*
X141137731Y-92869819D02*
X141213922Y-92869819D01*
X141213922Y-92869819D02*
X141328207Y-92822200D01*
X141328207Y-92822200D02*
X141366303Y-92774580D01*
X141366303Y-92774580D02*
X141366303Y-92441247D01*
X141366303Y-92441247D02*
X141213922Y-92441247D01*
X141709160Y-92869819D02*
X141709160Y-91869819D01*
X141709160Y-91869819D02*
X142013922Y-91869819D01*
X142013922Y-91869819D02*
X142090112Y-91917438D01*
X142090112Y-91917438D02*
X142128207Y-91965057D01*
X142128207Y-91965057D02*
X142166303Y-92060295D01*
X142166303Y-92060295D02*
X142166303Y-92203152D01*
X142166303Y-92203152D02*
X142128207Y-92298390D01*
X142128207Y-92298390D02*
X142090112Y-92346009D01*
X142090112Y-92346009D02*
X142013922Y-92393628D01*
X142013922Y-92393628D02*
X141709160Y-92393628D01*
X142661541Y-91869819D02*
X142813922Y-91869819D01*
X142813922Y-91869819D02*
X142890112Y-91917438D01*
X142890112Y-91917438D02*
X142966303Y-92012676D01*
X142966303Y-92012676D02*
X143004398Y-92203152D01*
X143004398Y-92203152D02*
X143004398Y-92536485D01*
X143004398Y-92536485D02*
X142966303Y-92726961D01*
X142966303Y-92726961D02*
X142890112Y-92822200D01*
X142890112Y-92822200D02*
X142813922Y-92869819D01*
X142813922Y-92869819D02*
X142661541Y-92869819D01*
X142661541Y-92869819D02*
X142585350Y-92822200D01*
X142585350Y-92822200D02*
X142509160Y-92726961D01*
X142509160Y-92726961D02*
X142471064Y-92536485D01*
X142471064Y-92536485D02*
X142471064Y-92203152D01*
X142471064Y-92203152D02*
X142509160Y-92012676D01*
X142509160Y-92012676D02*
X142585350Y-91917438D01*
X142585350Y-91917438D02*
X142661541Y-91869819D01*
D11*
%TO.C,IC1*%
X135510000Y-94240000D02*
X135510000Y-94130000D01*
X135510000Y-98110000D02*
X135510000Y-97760000D01*
X135860000Y-98110000D02*
X135510000Y-98110000D01*
X139380000Y-93890000D02*
X139730000Y-93890000D01*
X139380000Y-98110000D02*
X139730000Y-98110000D01*
X139730000Y-93890000D02*
X139730000Y-94240000D01*
X139730000Y-98110000D02*
X139730000Y-97760000D01*
X135510000Y-93890000D02*
X135270000Y-93560000D01*
X135750000Y-93560000D01*
X135510000Y-93890000D01*
G36*
X135510000Y-93890000D02*
G01*
X135270000Y-93560000D01*
X135750000Y-93560000D01*
X135510000Y-93890000D01*
G37*
%TO.C,R1*%
X139566359Y-99880000D02*
X139873641Y-99880000D01*
X139566359Y-99120000D02*
X139873641Y-99120000D01*
%TO.C,C2*%
X137027836Y-99860000D02*
X136812164Y-99860000D01*
X137027836Y-99140000D02*
X136812164Y-99140000D01*
%TO.C,C3*%
X141480000Y-94587836D02*
X141480000Y-94372164D01*
X140760000Y-94587836D02*
X140760000Y-94372164D01*
D12*
%TO.C,G2*%
G36*
X138831845Y-90251806D02*
G01*
X138872845Y-90258348D01*
X138877488Y-90262480D01*
X138860843Y-90286028D01*
X138814654Y-90338274D01*
X138744543Y-90413196D01*
X138656129Y-90504772D01*
X138569111Y-90592886D01*
X138260734Y-90902081D01*
X138451747Y-90903355D01*
X138654376Y-90926202D01*
X138832492Y-90991760D01*
X138985634Y-91099852D01*
X139001029Y-91114423D01*
X139087508Y-91198579D01*
X138618052Y-91210934D01*
X138455649Y-91215365D01*
X138337211Y-91219361D01*
X138257301Y-91223674D01*
X138210482Y-91229056D01*
X138191316Y-91236258D01*
X138194366Y-91246033D01*
X138214196Y-91259132D01*
X138225231Y-91265265D01*
X138338961Y-91350707D01*
X138437027Y-91467908D01*
X138513330Y-91604599D01*
X138561771Y-91748515D01*
X138576251Y-91887387D01*
X138568052Y-91954839D01*
X138550951Y-92032697D01*
X138198027Y-91680402D01*
X137845102Y-91328107D01*
X137806506Y-91461009D01*
X137742099Y-91751277D01*
X137721865Y-92032354D01*
X137746300Y-92311430D01*
X137815903Y-92595696D01*
X137900803Y-92823142D01*
X137905195Y-92843139D01*
X137892323Y-92855827D01*
X137853925Y-92862840D01*
X137781742Y-92865811D01*
X137682256Y-92866381D01*
X137445356Y-92866381D01*
X137426354Y-92798434D01*
X137419739Y-92750086D01*
X137414401Y-92663085D01*
X137410758Y-92548185D01*
X137409227Y-92416142D01*
X137409306Y-92359864D01*
X137419301Y-92070283D01*
X137447580Y-91814185D01*
X137496499Y-91578274D01*
X137568410Y-91349255D01*
X137605123Y-91254173D01*
X137607809Y-91240792D01*
X137599988Y-91230489D01*
X137576156Y-91222864D01*
X137530810Y-91217519D01*
X137458444Y-91214053D01*
X137353557Y-91212066D01*
X137210643Y-91211160D01*
X137024198Y-91210934D01*
X137009520Y-91210934D01*
X136396382Y-91210934D01*
X136503635Y-91101651D01*
X136653496Y-90980536D01*
X136828791Y-90898258D01*
X137033423Y-90853221D01*
X137131965Y-90844881D01*
X137350741Y-90834020D01*
X137107720Y-90590084D01*
X136864699Y-90346148D01*
X137037193Y-90346167D01*
X137228072Y-90370235D01*
X137407840Y-90440642D01*
X137572022Y-90554758D01*
X137716149Y-90709954D01*
X137759159Y-90770660D01*
X137824379Y-90869214D01*
X137883657Y-90752574D01*
X137969166Y-90622554D01*
X138086880Y-90495382D01*
X138221191Y-90386397D01*
X138312148Y-90331469D01*
X138396201Y-90293920D01*
X138481326Y-90270551D01*
X138586345Y-90257091D01*
X138661292Y-90252269D01*
X138757614Y-90249604D01*
X138831845Y-90251806D01*
G37*
G36*
X139221318Y-93076126D02*
G01*
X139507546Y-93359995D01*
X138574813Y-93360270D01*
X137642080Y-93360544D01*
X137642080Y-93237004D01*
X137642080Y-93113463D01*
X138235076Y-93113463D01*
X138400352Y-93112658D01*
X138547896Y-93110396D01*
X138670954Y-93106908D01*
X138762775Y-93102425D01*
X138816607Y-93097177D01*
X138828072Y-93093217D01*
X138814286Y-93064459D01*
X138778199Y-93008803D01*
X138729239Y-92940506D01*
X138679343Y-92872543D01*
X138643817Y-92822079D01*
X138630406Y-92800148D01*
X138652893Y-92796034D01*
X138711472Y-92793180D01*
X138782748Y-92792257D01*
X138935090Y-92792257D01*
X139221318Y-93076126D01*
G37*
G36*
X138600959Y-92458123D02*
G01*
X138716885Y-92568738D01*
X138575682Y-92569310D01*
X138490728Y-92566498D01*
X138441176Y-92554520D01*
X138413283Y-92529374D01*
X138408033Y-92520467D01*
X138388391Y-92495232D01*
X138355258Y-92480301D01*
X138297163Y-92473103D01*
X138202633Y-92471069D01*
X138187433Y-92471050D01*
X138080182Y-92468240D01*
X138013213Y-92457126D01*
X137977578Y-92433681D01*
X137964329Y-92393880D01*
X137963286Y-92370197D01*
X137986293Y-92360907D01*
X138048530Y-92353458D01*
X138139819Y-92348733D01*
X138224160Y-92347509D01*
X138485034Y-92347509D01*
X138600959Y-92458123D01*
G37*
G36*
X136496010Y-92918683D02*
G01*
X136556006Y-92926256D01*
X136579614Y-92936894D01*
X136579628Y-92937173D01*
X136565650Y-92969805D01*
X136531849Y-93019279D01*
X136530212Y-93021372D01*
X136496057Y-93068876D01*
X136480845Y-93098106D01*
X136480795Y-93098829D01*
X136503489Y-93105817D01*
X136563530Y-93110990D01*
X136648853Y-93113397D01*
X136666523Y-93113463D01*
X136852251Y-93113463D01*
X136789648Y-93237004D01*
X136727045Y-93360544D01*
X136264698Y-93360544D01*
X135802351Y-93360544D01*
X136023694Y-93138171D01*
X136245038Y-92915797D01*
X136412333Y-92915797D01*
X136496010Y-92918683D01*
G37*
G36*
X137116244Y-92348057D02*
G01*
X137175359Y-92351502D01*
X137202887Y-92360548D01*
X137207744Y-92377896D01*
X137200004Y-92403103D01*
X137178603Y-92437812D01*
X137137765Y-92456561D01*
X137063145Y-92465573D01*
X137054907Y-92466083D01*
X136975989Y-92474748D01*
X136926415Y-92495624D01*
X136886154Y-92538856D01*
X136872305Y-92558570D01*
X136836510Y-92606214D01*
X136801117Y-92631682D01*
X136749414Y-92641912D01*
X136666880Y-92643839D01*
X136519405Y-92644008D01*
X136666107Y-92495758D01*
X136812809Y-92347509D01*
X137016629Y-92347509D01*
X137116244Y-92348057D01*
G37*
D11*
%TO.C,C1*%
X134780000Y-93607836D02*
X134780000Y-93392164D01*
X134060000Y-93607836D02*
X134060000Y-93392164D01*
%TD*%
M02*
