%TF.GenerationSoftware,KiCad,Pcbnew,9.0.5+1*%
%TF.CreationDate,2025-11-07T12:29:22+01:00*%
%TF.ProjectId,ts17-tropic01-mini,74733137-2d74-4726-9f70-696330312d6d,rev?*%
%TF.SameCoordinates,Original*%
%TF.FileFunction,Copper,L1,Top*%
%TF.FilePolarity,Positive*%
%FSLAX46Y46*%
G04 Gerber Fmt 4.6, Leading zero omitted, Abs format (unit mm)*
G04 Created by KiCad (PCBNEW 9.0.5+1) date 2025-11-07 12:29:22*
%MOMM*%
%LPD*%
G01*
G04 APERTURE LIST*
G04 Aperture macros list*
%AMRoundRect*
0 Rectangle with rounded corners*
0 $1 Rounding radius*
0 $2 $3 $4 $5 $6 $7 $8 $9 X,Y pos of 4 corners*
0 Add a 4 corners polygon primitive as box body*
4,1,4,$2,$3,$4,$5,$6,$7,$8,$9,$2,$3,0*
0 Add four circle primitives for the rounded corners*
1,1,$1+$1,$2,$3*
1,1,$1+$1,$4,$5*
1,1,$1+$1,$6,$7*
1,1,$1+$1,$8,$9*
0 Add four rect primitives between the rounded corners*
20,1,$1+$1,$2,$3,$4,$5,0*
20,1,$1+$1,$4,$5,$6,$7,0*
20,1,$1+$1,$6,$7,$8,$9,0*
20,1,$1+$1,$8,$9,$2,$3,0*%
%AMFreePoly0*
4,1,14,0.314644,0.085355,0.385355,0.014644,0.400000,-0.020711,0.400000,-0.050000,0.385355,-0.085355,0.350000,-0.100000,-0.350000,-0.100000,-0.385355,-0.085355,-0.400000,-0.050000,-0.400000,0.050000,-0.385355,0.085355,-0.350000,0.100000,0.279289,0.100000,0.314644,0.085355,0.314644,0.085355,$1*%
%AMFreePoly1*
4,1,14,0.385355,0.085355,0.400000,0.050000,0.400000,0.020711,0.385355,-0.014644,0.314644,-0.085355,0.279289,-0.100000,-0.350000,-0.100000,-0.385355,-0.085355,-0.400000,-0.050000,-0.400000,0.050000,-0.385355,0.085355,-0.350000,0.100000,0.350000,0.100000,0.385355,0.085355,0.385355,0.085355,$1*%
%AMFreePoly2*
4,1,14,0.085355,0.385355,0.100000,0.350000,0.100000,-0.350000,0.085355,-0.385355,0.050000,-0.400000,-0.050000,-0.400000,-0.085355,-0.385355,-0.100000,-0.350000,-0.100000,0.279289,-0.085355,0.314644,-0.014644,0.385355,0.020711,0.400000,0.050000,0.400000,0.085355,0.385355,0.085355,0.385355,$1*%
%AMFreePoly3*
4,1,14,0.014644,0.385355,0.085355,0.314644,0.100000,0.279289,0.100000,-0.350000,0.085355,-0.385355,0.050000,-0.400000,-0.050000,-0.400000,-0.085355,-0.385355,-0.100000,-0.350000,-0.100000,0.350000,-0.085355,0.385355,-0.050000,0.400000,-0.020711,0.400000,0.014644,0.385355,0.014644,0.385355,$1*%
%AMFreePoly4*
4,1,14,0.385355,0.085355,0.400000,0.050000,0.400000,-0.050000,0.385355,-0.085355,0.350000,-0.100000,-0.279289,-0.100000,-0.314644,-0.085355,-0.385355,-0.014644,-0.400000,0.020711,-0.400000,0.050000,-0.385355,0.085355,-0.350000,0.100000,0.350000,0.100000,0.385355,0.085355,0.385355,0.085355,$1*%
%AMFreePoly5*
4,1,14,0.385355,0.085355,0.400000,0.050000,0.400000,-0.050000,0.385355,-0.085355,0.350000,-0.100000,-0.350000,-0.100000,-0.385355,-0.085355,-0.400000,-0.050000,-0.400000,-0.020711,-0.385355,0.014644,-0.314644,0.085355,-0.279289,0.100000,0.350000,0.100000,0.385355,0.085355,0.385355,0.085355,$1*%
%AMFreePoly6*
4,1,14,0.085355,0.385355,0.100000,0.350000,0.100000,-0.279289,0.085355,-0.314644,0.014644,-0.385355,-0.020711,-0.400000,-0.050000,-0.400000,-0.085355,-0.385355,-0.100000,-0.350000,-0.100000,0.350000,-0.085355,0.385355,-0.050000,0.400000,0.050000,0.400000,0.085355,0.385355,0.085355,0.385355,$1*%
%AMFreePoly7*
4,1,14,0.085355,0.385355,0.100000,0.350000,0.100000,-0.350000,0.085355,-0.385355,0.050000,-0.400000,0.020711,-0.400000,-0.014644,-0.385355,-0.085355,-0.314644,-0.100000,-0.279289,-0.100000,0.350000,-0.085355,0.385355,-0.050000,0.400000,0.050000,0.400000,0.085355,0.385355,0.085355,0.385355,$1*%
G04 Aperture macros list end*
%TA.AperFunction,CastellatedPad*%
%ADD10R,1.000000X1.700000*%
%TD*%
%TA.AperFunction,SMDPad,CuDef*%
%ADD11RoundRect,0.135000X-0.135000X-0.185000X0.135000X-0.185000X0.135000X0.185000X-0.135000X0.185000X0*%
%TD*%
%TA.AperFunction,SMDPad,CuDef*%
%ADD12FreePoly0,0.000000*%
%TD*%
%TA.AperFunction,SMDPad,CuDef*%
%ADD13RoundRect,0.050000X-0.350000X-0.050000X0.350000X-0.050000X0.350000X0.050000X-0.350000X0.050000X0*%
%TD*%
%TA.AperFunction,SMDPad,CuDef*%
%ADD14FreePoly1,0.000000*%
%TD*%
%TA.AperFunction,SMDPad,CuDef*%
%ADD15FreePoly2,0.000000*%
%TD*%
%TA.AperFunction,SMDPad,CuDef*%
%ADD16RoundRect,0.050000X-0.050000X-0.350000X0.050000X-0.350000X0.050000X0.350000X-0.050000X0.350000X0*%
%TD*%
%TA.AperFunction,SMDPad,CuDef*%
%ADD17FreePoly3,0.000000*%
%TD*%
%TA.AperFunction,SMDPad,CuDef*%
%ADD18FreePoly4,0.000000*%
%TD*%
%TA.AperFunction,SMDPad,CuDef*%
%ADD19FreePoly5,0.000000*%
%TD*%
%TA.AperFunction,SMDPad,CuDef*%
%ADD20FreePoly6,0.000000*%
%TD*%
%TA.AperFunction,SMDPad,CuDef*%
%ADD21FreePoly7,0.000000*%
%TD*%
%TA.AperFunction,HeatsinkPad*%
%ADD22R,2.650000X2.650000*%
%TD*%
%TA.AperFunction,SMDPad,CuDef*%
%ADD23C,0.500000*%
%TD*%
%TA.AperFunction,SMDPad,CuDef*%
%ADD24RoundRect,0.140000X0.140000X0.170000X-0.140000X0.170000X-0.140000X-0.170000X0.140000X-0.170000X0*%
%TD*%
%TA.AperFunction,SMDPad,CuDef*%
%ADD25RoundRect,0.140000X0.170000X-0.140000X0.170000X0.140000X-0.170000X0.140000X-0.170000X-0.140000X0*%
%TD*%
%TA.AperFunction,ViaPad*%
%ADD26C,0.800000*%
%TD*%
%TA.AperFunction,Conductor*%
%ADD27C,0.200000*%
%TD*%
%TA.AperFunction,Conductor*%
%ADD28C,0.300000*%
%TD*%
%TA.AperFunction,Conductor*%
%ADD29C,0.500000*%
%TD*%
G04 APERTURE END LIST*
D10*
%TO.P,J2,1,Pin_1*%
%TO.N,/SPI_MOSI*%
X130500000Y-92190000D03*
%TO.P,J2,2,Pin_2*%
%TO.N,/SPI_MISO*%
X130500000Y-94730000D03*
%TO.P,J2,3,Pin_3*%
%TO.N,/SPI_SCK*%
X130500000Y-97270000D03*
%TO.P,J2,4,Pin_4*%
%TO.N,/SPI_CS*%
X130500000Y-99810000D03*
%TD*%
D11*
%TO.P,R1,1*%
%TO.N,/SPI_MISO*%
X138590000Y-99500000D03*
%TO.P,R1,2*%
%TO.N,VCC*%
X139610000Y-99500000D03*
%TD*%
D12*
%TO.P,IC1,1,VCC*%
%TO.N,VCC*%
X135050000Y-94600000D03*
D13*
%TO.P,IC1,2,GND*%
%TO.N,GND*%
X135050000Y-95000000D03*
%TO.P,IC1,3,PULLDN*%
X135050000Y-95400000D03*
%TO.P,IC1,4,GPO*%
%TO.N,/GPO*%
X135050000Y-95800000D03*
%TO.P,IC1,5,SDI*%
%TO.N,/SPI_MOSI*%
X135050000Y-96200000D03*
%TO.P,IC1,6,SDO*%
%TO.N,/SPI_MISO*%
X135050000Y-96600000D03*
%TO.P,IC1,7,SCK*%
%TO.N,/SPI_SCK*%
X135050000Y-97000000D03*
D14*
%TO.P,IC1,8,CSN*%
%TO.N,/SPI_CS*%
X135050000Y-97400000D03*
D15*
%TO.P,IC1,9,PULLDN*%
%TO.N,GND*%
X135600000Y-97950000D03*
D16*
%TO.P,IC1,10,PULLDN*%
X136000000Y-97950000D03*
%TO.P,IC1,11,VCC*%
%TO.N,VCC*%
X136400000Y-97950000D03*
%TO.P,IC1,12,GND*%
%TO.N,GND*%
X136800000Y-97950000D03*
%TO.P,IC1,13,DNC*%
%TO.N,unconnected-(IC1-DNC-Pad13)*%
X137200000Y-97950000D03*
%TO.P,IC1,14,DNC*%
%TO.N,unconnected-(IC1-DNC-Pad14)*%
X137600000Y-97950000D03*
%TO.P,IC1,15*%
%TO.N,N/C*%
X138000000Y-97950000D03*
D17*
%TO.P,IC1,16*%
X138400000Y-97950000D03*
D18*
%TO.P,IC1,17,DNC*%
%TO.N,unconnected-(IC1-DNC-Pad17)*%
X138950000Y-97400000D03*
D13*
%TO.P,IC1,18,DNC*%
%TO.N,unconnected-(IC1-DNC-Pad18)*%
X138950000Y-97000000D03*
%TO.P,IC1,19,DNC*%
%TO.N,unconnected-(IC1-DNC-Pad19)*%
X138950000Y-96600000D03*
%TO.P,IC1,20,DNC*%
%TO.N,unconnected-(IC1-DNC-Pad20)*%
X138950000Y-96200000D03*
%TO.P,IC1,21,DNC*%
%TO.N,unconnected-(IC1-DNC-Pad21)*%
X138950000Y-95800000D03*
%TO.P,IC1,22,PULLUP*%
%TO.N,VCC*%
X138950000Y-95400000D03*
%TO.P,IC1,23,GND*%
%TO.N,GND*%
X138950000Y-95000000D03*
D19*
%TO.P,IC1,24,VCC*%
%TO.N,VCC*%
X138950000Y-94600000D03*
D20*
%TO.P,IC1,25*%
%TO.N,N/C*%
X138400000Y-94050000D03*
D16*
%TO.P,IC1,26,DNC*%
%TO.N,unconnected-(IC1-DNC-Pad26)*%
X138000000Y-94050000D03*
%TO.P,IC1,27,DNC*%
%TO.N,unconnected-(IC1-DNC-Pad27)*%
X137600000Y-94050000D03*
%TO.P,IC1,28,DNC*%
%TO.N,unconnected-(IC1-DNC-Pad28)*%
X137200000Y-94050000D03*
%TO.P,IC1,29,DNC*%
%TO.N,unconnected-(IC1-DNC-Pad29)*%
X136800000Y-94050000D03*
%TO.P,IC1,30,PULLDN*%
%TO.N,GND*%
X136400000Y-94050000D03*
%TO.P,IC1,31,PULLDN*%
X136000000Y-94050000D03*
D21*
%TO.P,IC1,32*%
%TO.N,N/C*%
X135600000Y-94050000D03*
D22*
%TO.P,IC1,33,TP*%
%TO.N,GND*%
X137000000Y-96000000D03*
%TD*%
D23*
%TO.P,FID1,*%
%TO.N,*%
X134500000Y-99500000D03*
%TD*%
D10*
%TO.P,J1,1,Pin_1*%
%TO.N,VCC*%
X143500000Y-99810000D03*
%TO.P,J1,2,Pin_2*%
%TO.N,GND*%
X143500000Y-97270000D03*
%TO.P,J1,3,Pin_3*%
X143500000Y-94730000D03*
%TO.P,J1,4,Pin_4*%
%TO.N,/GPO*%
X143500000Y-92190000D03*
%TD*%
D24*
%TO.P,C2,1*%
%TO.N,GND*%
X136780000Y-99500000D03*
%TO.P,C2,2*%
%TO.N,VCC*%
X135820000Y-99500000D03*
%TD*%
D25*
%TO.P,C3,1*%
%TO.N,GND*%
X140500000Y-94960000D03*
%TO.P,C3,2*%
%TO.N,VCC*%
X140500000Y-94000000D03*
%TD*%
%TO.P,C1,1*%
%TO.N,GND*%
X133800000Y-93980000D03*
%TO.P,C1,2*%
%TO.N,VCC*%
X133800000Y-93020000D03*
%TD*%
D26*
%TO.N,VCC*%
X142900000Y-99810000D03*
%TO.N,GND*%
X134310000Y-98340000D03*
X141018000Y-101084000D03*
X141018000Y-90924000D03*
X142900000Y-94730000D03*
X142900000Y-97270000D03*
X139800000Y-98500000D03*
X140500000Y-96650000D03*
X140500000Y-95650000D03*
X134830000Y-92680000D03*
X133144000Y-101084000D03*
X139170000Y-92670000D03*
X133144000Y-90924000D03*
X133900000Y-95100000D03*
%TO.N,/GPO*%
X142900000Y-92190000D03*
%TO.N,/SPI_SCK*%
X131100000Y-97270000D03*
%TO.N,/SPI_CS*%
X131100000Y-99810000D03*
%TO.N,/SPI_MOSI*%
X131100000Y-92190000D03*
%TO.N,/SPI_MISO*%
X132700130Y-96668485D03*
X137750000Y-99500000D03*
X131100000Y-94730000D03*
%TD*%
D27*
%TO.N,VCC*%
X139650000Y-94600000D02*
X140250000Y-94000000D01*
D28*
X140650000Y-98820000D02*
X140650000Y-97930000D01*
X134430000Y-91800000D02*
X133800000Y-92430000D01*
D27*
X140500000Y-94000000D02*
X141310000Y-94000000D01*
D28*
X140650000Y-99450000D02*
X140650000Y-100050000D01*
D27*
X134510000Y-94600000D02*
X134411000Y-94501000D01*
X138950000Y-95400000D02*
X139550000Y-95400000D01*
D28*
X141310000Y-93660000D02*
X139450000Y-91800000D01*
X141310000Y-97270000D02*
X141310000Y-94000000D01*
D27*
X140250000Y-94000000D02*
X140500000Y-94000000D01*
D29*
X141710000Y-99810000D02*
X141400000Y-99500000D01*
D28*
X139450000Y-91800000D02*
X134430000Y-91800000D01*
X133800000Y-92430000D02*
X133800000Y-93020000D01*
D29*
X141400000Y-99500000D02*
X140700000Y-99500000D01*
D27*
X136400000Y-97950000D02*
X136400000Y-98715686D01*
D28*
X140550000Y-93950000D02*
X140500000Y-94000000D01*
D27*
X136400000Y-98715686D02*
X135820000Y-99295686D01*
D28*
X140650000Y-97930000D02*
X141310000Y-97270000D01*
D27*
X140600000Y-99500000D02*
X140650000Y-99450000D01*
X139550000Y-95400000D02*
X139750000Y-95600000D01*
X135050000Y-94600000D02*
X134510000Y-94600000D01*
D29*
X144000000Y-99810000D02*
X142910000Y-99810000D01*
D27*
X135820000Y-99295686D02*
X135820000Y-99500000D01*
X139610000Y-99500000D02*
X140600000Y-99500000D01*
X134411000Y-94501000D02*
X134411000Y-93631000D01*
D29*
X142910000Y-99810000D02*
X141710000Y-99810000D01*
D27*
X138950000Y-94600000D02*
X139650000Y-94600000D01*
D28*
X136250000Y-100350000D02*
X135820000Y-99920000D01*
X135820000Y-99920000D02*
X135820000Y-99500000D01*
X141310000Y-94000000D02*
X141310000Y-93660000D01*
X140350000Y-100350000D02*
X136250000Y-100350000D01*
X140650000Y-100050000D02*
X140350000Y-100350000D01*
D27*
X139750000Y-97030000D02*
X140650000Y-97930000D01*
X134411000Y-93631000D02*
X133800000Y-93020000D01*
D28*
X140650000Y-98820000D02*
X140650000Y-99450000D01*
D27*
X139750000Y-95600000D02*
X139750000Y-97030000D01*
D29*
X140700000Y-99500000D02*
X140650000Y-99450000D01*
D27*
%TO.N,GND*%
X135050000Y-95000000D02*
X134000000Y-95000000D01*
X133900000Y-94080000D02*
X133800000Y-93980000D01*
D28*
X142920000Y-94730000D02*
X142400000Y-94730000D01*
D27*
X138950000Y-95000000D02*
X138000000Y-95000000D01*
X136400000Y-94050000D02*
X136400000Y-95400000D01*
X136000000Y-97950000D02*
X136000000Y-97000000D01*
X136000000Y-97950000D02*
X136000000Y-98550000D01*
D28*
X142200000Y-94930000D02*
X142400000Y-94730000D01*
D27*
X134000000Y-95000000D02*
X133900000Y-95100000D01*
X135050000Y-95400000D02*
X136400000Y-95400000D01*
X135600000Y-97950000D02*
X135600000Y-98750000D01*
X136800000Y-96200000D02*
X137000000Y-96000000D01*
D28*
X142910000Y-97270000D02*
X142370000Y-97270000D01*
D27*
X134420165Y-95400000D02*
X135050000Y-95400000D01*
X136800000Y-97950000D02*
X136800000Y-96200000D01*
X136000000Y-97000000D02*
X137000000Y-96000000D01*
X134120165Y-95100000D02*
X134420165Y-95400000D01*
X136780000Y-99000000D02*
X136780000Y-99500000D01*
X133900000Y-95100000D02*
X134120165Y-95100000D01*
X140500000Y-94960000D02*
X140500000Y-95650000D01*
X136000000Y-98550000D02*
X135800000Y-98750000D01*
X136852000Y-98928000D02*
X136780000Y-99000000D01*
X136400000Y-95400000D02*
X137000000Y-96000000D01*
X140460000Y-95000000D02*
X140500000Y-94960000D01*
X135590000Y-98760000D02*
X134730000Y-98760000D01*
X136000000Y-95000000D02*
X137000000Y-96000000D01*
X135800000Y-98750000D02*
X135600000Y-98750000D01*
X138000000Y-95000000D02*
X137000000Y-96000000D01*
X135050000Y-95000000D02*
X136000000Y-95000000D01*
X135600000Y-98750000D02*
X135590000Y-98760000D01*
D28*
X142200000Y-97100000D02*
X142200000Y-94930000D01*
X142370000Y-97270000D02*
X142200000Y-97100000D01*
D27*
X134730000Y-98760000D02*
X134310000Y-98340000D01*
X136000000Y-94050000D02*
X136000000Y-95000000D01*
X138950000Y-95000000D02*
X140460000Y-95000000D01*
D28*
X144000000Y-94730000D02*
X142920000Y-94730000D01*
D27*
X136852000Y-97950000D02*
X136852000Y-98928000D01*
D28*
X144000000Y-97270000D02*
X142910000Y-97270000D01*
D27*
X133900000Y-95100000D02*
X133900000Y-94080000D01*
%TO.N,/GPO*%
X133570000Y-95800000D02*
X133000000Y-95230000D01*
X141100000Y-92250000D02*
X142920000Y-92250000D01*
X133000000Y-92300000D02*
X134050000Y-91250000D01*
X135050000Y-95800000D02*
X133570000Y-95800000D01*
X133000000Y-95230000D02*
X133000000Y-92300000D01*
X143940000Y-92250000D02*
X144000000Y-92190000D01*
X142920000Y-92250000D02*
X143940000Y-92250000D01*
X140100000Y-91250000D02*
X141100000Y-92250000D01*
X134050000Y-91250000D02*
X140100000Y-91250000D01*
%TO.N,/SPI_SCK*%
X132901276Y-97528000D02*
X131932492Y-97528000D01*
X131932492Y-97528000D02*
X131674492Y-97270000D01*
X133429276Y-97000000D02*
X132901276Y-97528000D01*
X131674492Y-97270000D02*
X131050000Y-97270000D01*
X131050000Y-97270000D02*
X130000000Y-97270000D01*
X135050000Y-97000000D02*
X133429276Y-97000000D01*
%TO.N,/SPI_CS*%
X133300000Y-99200000D02*
X132690000Y-99810000D01*
X130950000Y-99900000D02*
X130090000Y-99900000D01*
X131040000Y-99810000D02*
X130950000Y-99900000D01*
X133300000Y-98000000D02*
X133300000Y-99200000D01*
X133900000Y-97400000D02*
X133300000Y-98000000D01*
X135050000Y-97400000D02*
X133900000Y-97400000D01*
X132690000Y-99810000D02*
X131040000Y-99810000D01*
X130090000Y-99900000D02*
X130000000Y-99810000D01*
%TO.N,/SPI_MOSI*%
X132600000Y-95500000D02*
X133300000Y-96200000D01*
X131540000Y-92190000D02*
X131550000Y-92200000D01*
X132600000Y-92480000D02*
X132600000Y-95500000D01*
X132320000Y-92200000D02*
X132600000Y-92480000D01*
X133300000Y-96200000D02*
X135050000Y-96200000D01*
X131550000Y-92200000D02*
X132320000Y-92200000D01*
X130000000Y-92190000D02*
X131540000Y-92190000D01*
%TO.N,/SPI_MISO*%
X132880000Y-96600000D02*
X132631645Y-96600000D01*
X132000000Y-95968355D02*
X132000000Y-95114000D01*
X138590000Y-99500000D02*
X137750000Y-99500000D01*
X132631645Y-96600000D02*
X132000000Y-95968355D01*
X131000000Y-94730000D02*
X130000000Y-94730000D01*
X132000000Y-95114000D02*
X131616000Y-94730000D01*
X135050000Y-96600000D02*
X132880000Y-96600000D01*
X131616000Y-94730000D02*
X131000000Y-94730000D01*
X132880000Y-96600000D02*
X132840000Y-96560000D01*
%TD*%
%TA.AperFunction,Conductor*%
%TO.N,GND*%
G36*
X135149191Y-97719407D02*
G01*
X135185155Y-97768907D01*
X135190000Y-97799500D01*
X135190000Y-98300045D01*
X135190080Y-98307036D01*
X135190081Y-98307044D01*
X135213213Y-98416707D01*
X135213217Y-98416721D01*
X135229327Y-98455614D01*
X135235017Y-98468502D01*
X135300481Y-98559482D01*
X135300482Y-98559484D01*
X135394389Y-98620673D01*
X135433348Y-98636810D01*
X135439817Y-98639402D01*
X135439830Y-98639406D01*
X135550000Y-98660000D01*
X135650046Y-98660000D01*
X135657036Y-98659919D01*
X135657044Y-98659918D01*
X135766707Y-98636786D01*
X135771089Y-98635430D01*
X135771446Y-98636583D01*
X135774538Y-98636339D01*
X135781701Y-98632023D01*
X135801185Y-98634238D01*
X135827197Y-98632188D01*
X135842660Y-98637274D01*
X135855415Y-98642668D01*
X135874959Y-98659611D01*
X135896095Y-98674504D01*
X135897756Y-98679374D01*
X135901646Y-98682747D01*
X135907497Y-98707937D01*
X135915845Y-98732414D01*
X135914325Y-98737332D01*
X135915490Y-98742346D01*
X135905417Y-98766164D01*
X135897783Y-98790873D01*
X135892124Y-98797597D01*
X135891658Y-98798700D01*
X135890721Y-98799264D01*
X135886859Y-98803854D01*
X135730209Y-98960504D01*
X135675692Y-98988281D01*
X135660209Y-98989500D01*
X135640106Y-98989500D01*
X135640091Y-98989501D01*
X135590513Y-98996027D01*
X135590511Y-98996027D01*
X135481686Y-99046774D01*
X135396774Y-99131686D01*
X135346029Y-99240510D01*
X135346028Y-99240511D01*
X135339500Y-99290100D01*
X135339500Y-99709896D01*
X135339501Y-99709907D01*
X135346027Y-99759486D01*
X135346027Y-99759488D01*
X135396774Y-99868313D01*
X135396776Y-99868316D01*
X135441931Y-99913472D01*
X135467666Y-99958275D01*
X135469500Y-99965242D01*
X135469500Y-99966144D01*
X135482856Y-100015988D01*
X135493386Y-100055288D01*
X135539530Y-100135212D01*
X136034788Y-100630470D01*
X136114712Y-100676614D01*
X136203856Y-100700500D01*
X136203858Y-100700500D01*
X140396142Y-100700500D01*
X140396144Y-100700500D01*
X140485288Y-100676614D01*
X140565212Y-100630470D01*
X140930470Y-100265212D01*
X140976614Y-100185288D01*
X140980579Y-100170489D01*
X141000500Y-100096144D01*
X141000500Y-100041687D01*
X141001727Y-100033965D01*
X141012249Y-100013338D01*
X141019407Y-99991309D01*
X141025890Y-99986598D01*
X141029531Y-99979462D01*
X141050168Y-99968959D01*
X141068907Y-99955345D01*
X141080540Y-99953502D01*
X141084061Y-99951711D01*
X141087950Y-99952329D01*
X141099500Y-99950500D01*
X141172389Y-99950500D01*
X141230580Y-99969407D01*
X141242392Y-99979496D01*
X141433385Y-100170488D01*
X141433390Y-100170492D01*
X141536107Y-100229796D01*
X141536109Y-100229797D01*
X141536113Y-100229799D01*
X141560322Y-100236284D01*
X141560325Y-100236287D01*
X141560326Y-100236286D01*
X141650688Y-100260499D01*
X141650690Y-100260500D01*
X141650691Y-100260500D01*
X142460257Y-100260500D01*
X142518448Y-100279407D01*
X142530254Y-100289490D01*
X142531284Y-100290520D01*
X142668216Y-100369577D01*
X142726125Y-100385093D01*
X142777437Y-100418416D01*
X142799364Y-100475537D01*
X142799500Y-100480719D01*
X142799500Y-100679746D01*
X142799501Y-100679758D01*
X142811132Y-100738227D01*
X142811133Y-100738231D01*
X142855448Y-100804552D01*
X142921769Y-100848867D01*
X142966231Y-100857711D01*
X142980241Y-100860498D01*
X142980246Y-100860498D01*
X142980252Y-100860500D01*
X143600500Y-100860500D01*
X143658691Y-100879407D01*
X143694655Y-100928907D01*
X143699500Y-100959500D01*
X143699500Y-101600500D01*
X143680593Y-101658691D01*
X143631093Y-101694655D01*
X143600500Y-101699500D01*
X130399500Y-101699500D01*
X130341309Y-101680593D01*
X130305345Y-101631093D01*
X130300500Y-101600500D01*
X130300500Y-100959500D01*
X130319407Y-100901309D01*
X130368907Y-100865345D01*
X130399500Y-100860500D01*
X131019747Y-100860500D01*
X131019748Y-100860500D01*
X131078231Y-100848867D01*
X131144552Y-100804552D01*
X131188867Y-100738231D01*
X131200500Y-100679748D01*
X131200500Y-100480719D01*
X131219407Y-100422528D01*
X131268907Y-100386564D01*
X131273843Y-100385101D01*
X131331784Y-100369577D01*
X131468716Y-100290520D01*
X131580520Y-100178716D01*
X131591326Y-100160000D01*
X131636796Y-100119059D01*
X131677062Y-100110500D01*
X132729563Y-100110500D01*
X132729563Y-100110499D01*
X132805989Y-100090021D01*
X132874511Y-100050460D01*
X132930460Y-99994511D01*
X133504028Y-99420943D01*
X133899500Y-99420943D01*
X133899500Y-99579057D01*
X133940423Y-99731784D01*
X134019480Y-99868716D01*
X134131284Y-99980520D01*
X134268216Y-100059577D01*
X134420943Y-100100500D01*
X134420945Y-100100500D01*
X134579055Y-100100500D01*
X134579057Y-100100500D01*
X134731784Y-100059577D01*
X134868716Y-99980520D01*
X134980520Y-99868716D01*
X135059577Y-99731784D01*
X135100500Y-99579057D01*
X135100500Y-99420943D01*
X135059577Y-99268216D01*
X134980520Y-99131284D01*
X134868716Y-99019480D01*
X134731784Y-98940423D01*
X134579057Y-98899500D01*
X134420943Y-98899500D01*
X134268216Y-98940423D01*
X134131284Y-99019480D01*
X134019480Y-99131284D01*
X133940423Y-99268216D01*
X133899500Y-99420943D01*
X133504028Y-99420943D01*
X133540460Y-99384511D01*
X133554900Y-99359500D01*
X133580021Y-99315989D01*
X133600500Y-99239562D01*
X133600500Y-98165479D01*
X133619407Y-98107288D01*
X133629496Y-98095475D01*
X133995475Y-97729496D01*
X134049992Y-97701719D01*
X134065479Y-97700500D01*
X135091000Y-97700500D01*
X135149191Y-97719407D01*
G37*
%TD.AperFunction*%
%TA.AperFunction,Conductor*%
G36*
X139322001Y-92169407D02*
G01*
X139333814Y-92179496D01*
X140504814Y-93350496D01*
X140532591Y-93405013D01*
X140523020Y-93465445D01*
X140479755Y-93508710D01*
X140434811Y-93519500D01*
X140290104Y-93519500D01*
X140290092Y-93519501D01*
X140240513Y-93526027D01*
X140240511Y-93526027D01*
X140131686Y-93576774D01*
X140046774Y-93661686D01*
X139996029Y-93770510D01*
X139996028Y-93770510D01*
X139991547Y-93804550D01*
X139965205Y-93859774D01*
X139963398Y-93861629D01*
X139554526Y-94270503D01*
X139500009Y-94298281D01*
X139484522Y-94299500D01*
X138910435Y-94299500D01*
X138834011Y-94319978D01*
X138834007Y-94319980D01*
X138759870Y-94362784D01*
X138758425Y-94360281D01*
X138712050Y-94376682D01*
X138653392Y-94359280D01*
X138616165Y-94310723D01*
X138610500Y-94277715D01*
X138610500Y-93700001D01*
X138610498Y-93699989D01*
X138602471Y-93659635D01*
X138602468Y-93659625D01*
X138586360Y-93620736D01*
X138578844Y-93605985D01*
X138529264Y-93563640D01*
X138529259Y-93563638D01*
X138513151Y-93556966D01*
X138490373Y-93547531D01*
X138490371Y-93547530D01*
X138490370Y-93547530D01*
X138490364Y-93547528D01*
X138450010Y-93539501D01*
X138450000Y-93539500D01*
X138350000Y-93539500D01*
X138349999Y-93539500D01*
X138349989Y-93539501D01*
X138309635Y-93547528D01*
X138309625Y-93547531D01*
X138270739Y-93563638D01*
X138255983Y-93571156D01*
X138253782Y-93572892D01*
X138249418Y-93574501D01*
X138247296Y-93575583D01*
X138247167Y-93575331D01*
X138196377Y-93594066D01*
X138137495Y-93577458D01*
X138108723Y-93558233D01*
X138108720Y-93558232D01*
X138064827Y-93549500D01*
X138064820Y-93549500D01*
X137935180Y-93549500D01*
X137935172Y-93549500D01*
X137891279Y-93558232D01*
X137891276Y-93558233D01*
X137855001Y-93582472D01*
X137796113Y-93599080D01*
X137744999Y-93582472D01*
X137708723Y-93558233D01*
X137708720Y-93558232D01*
X137664827Y-93549500D01*
X137664820Y-93549500D01*
X137535180Y-93549500D01*
X137535172Y-93549500D01*
X137491279Y-93558232D01*
X137491276Y-93558233D01*
X137455001Y-93582472D01*
X137396113Y-93599080D01*
X137344999Y-93582472D01*
X137308723Y-93558233D01*
X137308720Y-93558232D01*
X137264827Y-93549500D01*
X137264820Y-93549500D01*
X137135180Y-93549500D01*
X137135172Y-93549500D01*
X137091279Y-93558232D01*
X137091276Y-93558233D01*
X137055001Y-93582472D01*
X136996113Y-93599080D01*
X136972568Y-93595280D01*
X136957788Y-93591017D01*
X136908722Y-93558233D01*
X136864820Y-93549500D01*
X136813819Y-93549500D01*
X136800378Y-93545624D01*
X136786060Y-93535934D01*
X136769619Y-93530593D01*
X136758365Y-93517193D01*
X136749705Y-93511333D01*
X136746869Y-93503505D01*
X136744043Y-93500141D01*
X136743555Y-93500490D01*
X136739119Y-93494278D01*
X136738869Y-93493980D01*
X136738787Y-93493813D01*
X136656187Y-93411213D01*
X136551246Y-93359911D01*
X136500000Y-93352443D01*
X136500000Y-94747553D01*
X136551250Y-94740087D01*
X136656188Y-94688785D01*
X136738787Y-94606186D01*
X136738869Y-94606020D01*
X136739012Y-94605871D01*
X136743555Y-94599510D01*
X136744508Y-94600190D01*
X136781412Y-94562046D01*
X136800378Y-94554377D01*
X136813822Y-94550500D01*
X136864820Y-94550500D01*
X136908722Y-94541767D01*
X136957788Y-94508982D01*
X136972568Y-94504720D01*
X136988520Y-94505252D01*
X137003886Y-94500919D01*
X137020511Y-94506320D01*
X137033719Y-94506762D01*
X137042201Y-94513368D01*
X137055000Y-94517527D01*
X137067856Y-94526117D01*
X137091276Y-94541766D01*
X137091277Y-94541766D01*
X137091278Y-94541767D01*
X137102327Y-94543964D01*
X137135172Y-94550499D01*
X137135178Y-94550499D01*
X137135180Y-94550500D01*
X137135181Y-94550500D01*
X137264819Y-94550500D01*
X137264820Y-94550500D01*
X137264821Y-94550499D01*
X137264827Y-94550499D01*
X137286623Y-94546162D01*
X137308722Y-94541767D01*
X137344998Y-94517527D01*
X137403886Y-94500919D01*
X137455000Y-94517527D01*
X137467856Y-94526117D01*
X137491276Y-94541766D01*
X137491277Y-94541766D01*
X137491278Y-94541767D01*
X137502327Y-94543964D01*
X137535172Y-94550499D01*
X137535178Y-94550499D01*
X137535180Y-94550500D01*
X137535181Y-94550500D01*
X137664819Y-94550500D01*
X137664820Y-94550500D01*
X137664821Y-94550499D01*
X137664827Y-94550499D01*
X137686623Y-94546162D01*
X137708722Y-94541767D01*
X137744998Y-94517527D01*
X137803886Y-94500919D01*
X137855000Y-94517527D01*
X137867856Y-94526117D01*
X137891276Y-94541766D01*
X137891277Y-94541766D01*
X137891278Y-94541767D01*
X137902327Y-94543964D01*
X137935172Y-94550499D01*
X137935178Y-94550499D01*
X137935180Y-94550500D01*
X137935181Y-94550500D01*
X138064819Y-94550500D01*
X138064820Y-94550500D01*
X138064821Y-94550499D01*
X138064827Y-94550499D01*
X138086623Y-94546162D01*
X138108722Y-94541767D01*
X138140863Y-94520291D01*
X138199748Y-94503683D01*
X138243268Y-94515694D01*
X138252319Y-94520630D01*
X138270736Y-94536360D01*
X138309627Y-94552469D01*
X138311303Y-94552802D01*
X138318682Y-94556827D01*
X138336246Y-94575407D01*
X138355687Y-94592010D01*
X138356962Y-94597321D01*
X138360714Y-94601290D01*
X138364003Y-94626645D01*
X138369972Y-94651505D01*
X138367882Y-94656550D01*
X138368585Y-94661967D01*
X138356341Y-94684414D01*
X138346559Y-94708033D01*
X138341282Y-94713743D01*
X138311213Y-94743812D01*
X138259912Y-94848751D01*
X138252446Y-94900000D01*
X138900151Y-94900000D01*
X138903949Y-94901234D01*
X138903949Y-94900500D01*
X139689563Y-94900500D01*
X139689563Y-94900499D01*
X139765989Y-94880021D01*
X139834511Y-94840460D01*
X139835976Y-94838994D01*
X139837297Y-94838321D01*
X139839657Y-94836511D01*
X139839992Y-94836948D01*
X139890491Y-94811219D01*
X139905978Y-94810000D01*
X140401000Y-94810000D01*
X140459191Y-94828907D01*
X140495155Y-94878407D01*
X140500000Y-94909000D01*
X140500000Y-94959999D01*
X140500001Y-94960000D01*
X140551000Y-94960000D01*
X140609191Y-94978907D01*
X140645155Y-95028407D01*
X140650000Y-95059000D01*
X140650000Y-95539998D01*
X140650001Y-95539999D01*
X140723004Y-95539999D01*
X140752721Y-95537213D01*
X140752726Y-95537212D01*
X140827802Y-95510942D01*
X140888972Y-95509569D01*
X140939267Y-95544412D01*
X140959475Y-95602164D01*
X140959500Y-95604386D01*
X140959500Y-97083810D01*
X140940593Y-97142001D01*
X140930503Y-97153814D01*
X140684647Y-97399669D01*
X140630131Y-97427446D01*
X140569699Y-97417875D01*
X140544640Y-97399669D01*
X140079496Y-96934525D01*
X140051719Y-96880008D01*
X140050500Y-96864521D01*
X140050500Y-95607885D01*
X140069407Y-95549694D01*
X140118907Y-95513730D01*
X140180093Y-95513730D01*
X140182198Y-95514441D01*
X140247272Y-95537212D01*
X140276999Y-95539999D01*
X140349999Y-95539998D01*
X140350000Y-95539998D01*
X140350000Y-95110001D01*
X140349999Y-95110000D01*
X139890002Y-95110000D01*
X139874646Y-95125355D01*
X139871094Y-95136290D01*
X139862411Y-95142598D01*
X139857018Y-95151874D01*
X139838221Y-95160173D01*
X139821594Y-95172254D01*
X139810862Y-95172254D01*
X139801046Y-95176588D01*
X139785755Y-95172254D01*
X139760408Y-95172254D01*
X139741237Y-95163683D01*
X139735065Y-95160094D01*
X139734511Y-95159540D01*
X139717639Y-95149799D01*
X139678102Y-95126972D01*
X139677876Y-95126841D01*
X139677648Y-95126586D01*
X139652760Y-95106018D01*
X139647555Y-95100000D01*
X139599849Y-95100000D01*
X139592221Y-95099500D01*
X139589562Y-95099500D01*
X138910438Y-95099500D01*
X138907779Y-95099500D01*
X138900151Y-95100000D01*
X138252446Y-95100000D01*
X138259912Y-95151250D01*
X138311214Y-95256188D01*
X138393812Y-95338786D01*
X138393975Y-95338866D01*
X138394120Y-95339006D01*
X138400488Y-95343553D01*
X138399806Y-95344507D01*
X138437952Y-95381406D01*
X138445624Y-95400377D01*
X138449500Y-95413817D01*
X138449500Y-95464820D01*
X138458233Y-95508722D01*
X138491017Y-95557788D01*
X138495280Y-95572568D01*
X138494746Y-95588523D01*
X138499080Y-95603887D01*
X138493678Y-95620511D01*
X138493237Y-95633720D01*
X138486630Y-95642201D01*
X138482472Y-95655001D01*
X138458233Y-95691276D01*
X138458232Y-95691279D01*
X138449500Y-95735172D01*
X138449500Y-95864827D01*
X138458232Y-95908720D01*
X138458233Y-95908723D01*
X138482472Y-95944999D01*
X138499080Y-96003887D01*
X138482472Y-96055001D01*
X138458233Y-96091276D01*
X138458232Y-96091279D01*
X138449500Y-96135172D01*
X138449500Y-96264827D01*
X138458232Y-96308720D01*
X138458233Y-96308723D01*
X138482472Y-96344999D01*
X138499080Y-96403887D01*
X138482472Y-96455001D01*
X138458233Y-96491276D01*
X138458232Y-96491279D01*
X138449500Y-96535172D01*
X138449500Y-96664827D01*
X138458232Y-96708720D01*
X138458233Y-96708723D01*
X138482472Y-96744999D01*
X138499080Y-96803887D01*
X138482472Y-96855001D01*
X138458233Y-96891276D01*
X138458232Y-96891279D01*
X138449500Y-96935172D01*
X138449500Y-97064827D01*
X138458232Y-97108720D01*
X138458233Y-97108723D01*
X138479708Y-97140862D01*
X138496316Y-97199750D01*
X138489646Y-97231783D01*
X138483561Y-97247411D01*
X138463640Y-97270736D01*
X138447531Y-97309627D01*
X138439500Y-97350000D01*
X138439500Y-97360574D01*
X138433169Y-97376835D01*
X138421990Y-97390505D01*
X138414914Y-97406680D01*
X138403104Y-97413601D01*
X138394437Y-97424200D01*
X138377359Y-97428688D01*
X138362126Y-97437616D01*
X138350625Y-97439438D01*
X138349994Y-97439500D01*
X138309635Y-97447528D01*
X138309625Y-97447531D01*
X138270739Y-97463638D01*
X138255983Y-97471156D01*
X138253782Y-97472892D01*
X138249418Y-97474501D01*
X138247296Y-97475583D01*
X138247167Y-97475331D01*
X138196377Y-97494066D01*
X138137495Y-97477458D01*
X138108723Y-97458233D01*
X138108720Y-97458232D01*
X138064827Y-97449500D01*
X138064820Y-97449500D01*
X137935180Y-97449500D01*
X137935172Y-97449500D01*
X137891279Y-97458232D01*
X137891276Y-97458233D01*
X137855001Y-97482472D01*
X137796113Y-97499080D01*
X137744999Y-97482472D01*
X137708723Y-97458233D01*
X137708720Y-97458232D01*
X137664827Y-97449500D01*
X137664820Y-97449500D01*
X137535180Y-97449500D01*
X137535172Y-97449500D01*
X137491279Y-97458232D01*
X137491276Y-97458233D01*
X137455001Y-97482472D01*
X137396113Y-97499080D01*
X137372568Y-97495280D01*
X137357788Y-97491017D01*
X137308722Y-97458233D01*
X137264820Y-97449500D01*
X137213819Y-97449500D01*
X137200378Y-97445624D01*
X137186060Y-97435934D01*
X137169619Y-97430593D01*
X137158365Y-97417193D01*
X137149705Y-97411333D01*
X137146869Y-97403505D01*
X137144043Y-97400141D01*
X137143555Y-97400490D01*
X137139119Y-97394278D01*
X137138869Y-97393980D01*
X137138787Y-97393813D01*
X137056187Y-97311213D01*
X136951246Y-97259911D01*
X136900000Y-97252443D01*
X136900000Y-98647553D01*
X136951250Y-98640087D01*
X137056188Y-98588785D01*
X137138787Y-98506186D01*
X137138869Y-98506020D01*
X137139012Y-98505871D01*
X137143555Y-98499510D01*
X137144508Y-98500190D01*
X137181412Y-98462046D01*
X137200378Y-98454377D01*
X137213822Y-98450500D01*
X137264820Y-98450500D01*
X137308722Y-98441767D01*
X137357788Y-98408982D01*
X137372568Y-98404720D01*
X137388520Y-98405252D01*
X137403886Y-98400919D01*
X137420511Y-98406320D01*
X137433719Y-98406762D01*
X137442201Y-98413368D01*
X137455000Y-98417527D01*
X137465975Y-98424860D01*
X137491276Y-98441766D01*
X137491277Y-98441766D01*
X137491278Y-98441767D01*
X137502327Y-98443964D01*
X137535172Y-98450499D01*
X137535178Y-98450499D01*
X137535180Y-98450500D01*
X137535181Y-98450500D01*
X137664819Y-98450500D01*
X137664820Y-98450500D01*
X137664821Y-98450499D01*
X137664827Y-98450499D01*
X137686623Y-98446162D01*
X137708722Y-98441767D01*
X137744998Y-98417527D01*
X137803886Y-98400919D01*
X137855000Y-98417527D01*
X137865975Y-98424860D01*
X137891276Y-98441766D01*
X137891277Y-98441766D01*
X137891278Y-98441767D01*
X137902327Y-98443964D01*
X137935172Y-98450499D01*
X137935178Y-98450499D01*
X137935180Y-98450500D01*
X137935181Y-98450500D01*
X138064819Y-98450500D01*
X138064820Y-98450500D01*
X138064821Y-98450499D01*
X138064827Y-98450499D01*
X138086623Y-98446162D01*
X138108722Y-98441767D01*
X138140863Y-98420291D01*
X138199748Y-98403683D01*
X138257152Y-98424860D01*
X138260156Y-98427325D01*
X138269501Y-98435305D01*
X138270736Y-98436360D01*
X138309627Y-98452469D01*
X138309631Y-98452469D01*
X138309635Y-98452471D01*
X138349989Y-98460498D01*
X138349994Y-98460498D01*
X138350000Y-98460500D01*
X138350001Y-98460500D01*
X138449999Y-98460500D01*
X138450000Y-98460500D01*
X138474563Y-98455614D01*
X138490364Y-98452471D01*
X138490366Y-98452470D01*
X138490373Y-98452469D01*
X138529264Y-98436360D01*
X138544015Y-98428844D01*
X138586360Y-98379264D01*
X138602469Y-98340373D01*
X138610500Y-98300000D01*
X138610500Y-97709500D01*
X138629407Y-97651309D01*
X138678907Y-97615345D01*
X138709500Y-97610500D01*
X139299999Y-97610500D01*
X139300000Y-97610500D01*
X139301986Y-97610104D01*
X139340364Y-97602471D01*
X139340366Y-97602470D01*
X139340373Y-97602469D01*
X139379264Y-97586360D01*
X139394015Y-97578844D01*
X139436360Y-97529264D01*
X139452469Y-97490373D01*
X139452470Y-97490366D01*
X139452472Y-97490362D01*
X139460498Y-97450010D01*
X139460500Y-97449998D01*
X139460500Y-97404478D01*
X139479407Y-97346287D01*
X139528907Y-97310323D01*
X139590093Y-97310323D01*
X139629501Y-97334472D01*
X140270505Y-97975476D01*
X140298281Y-98029991D01*
X140299500Y-98045478D01*
X140299500Y-99100500D01*
X140294655Y-99115411D01*
X140294655Y-99131093D01*
X140285438Y-99143778D01*
X140280593Y-99158691D01*
X140267907Y-99167907D01*
X140258691Y-99180593D01*
X140243778Y-99185438D01*
X140231093Y-99194655D01*
X140200500Y-99199500D01*
X140124395Y-99199500D01*
X140066204Y-99180593D01*
X140034671Y-99142340D01*
X140024066Y-99119598D01*
X140024065Y-99119597D01*
X140024065Y-99119596D01*
X139940404Y-99035935D01*
X139940402Y-99035934D01*
X139940401Y-99035933D01*
X139833175Y-98985932D01*
X139796416Y-98981093D01*
X139784316Y-98979500D01*
X139435684Y-98979500D01*
X139423584Y-98981093D01*
X139386825Y-98985932D01*
X139386824Y-98985932D01*
X139279598Y-99035933D01*
X139195933Y-99119598D01*
X139189724Y-99132915D01*
X139147995Y-99177663D01*
X139087934Y-99189337D01*
X139032482Y-99163478D01*
X139010276Y-99132915D01*
X139004066Y-99119598D01*
X139004065Y-99119597D01*
X139004065Y-99119596D01*
X138920404Y-99035935D01*
X138920402Y-99035934D01*
X138920401Y-99035933D01*
X138813175Y-98985932D01*
X138776416Y-98981093D01*
X138764316Y-98979500D01*
X138415684Y-98979500D01*
X138403584Y-98981093D01*
X138366825Y-98985932D01*
X138366824Y-98985932D01*
X138259599Y-99035932D01*
X138254459Y-99039532D01*
X138195946Y-99057419D01*
X138138095Y-99037497D01*
X138127680Y-99028444D01*
X138118716Y-99019480D01*
X137981784Y-98940423D01*
X137829057Y-98899500D01*
X137670943Y-98899500D01*
X137532506Y-98936594D01*
X137518216Y-98940423D01*
X137381282Y-99019481D01*
X137380000Y-99020764D01*
X137378839Y-99021355D01*
X137376134Y-99023431D01*
X137375749Y-99022929D01*
X137325481Y-99048536D01*
X137265049Y-99038960D01*
X137241539Y-99018951D01*
X137239886Y-99020605D01*
X137234639Y-99015358D01*
X137127920Y-98936594D01*
X137002727Y-98892787D01*
X136973000Y-98890000D01*
X136930001Y-98890000D01*
X136930000Y-98890001D01*
X136930000Y-99401000D01*
X136925155Y-99415911D01*
X136925155Y-99431593D01*
X136915938Y-99444278D01*
X136911093Y-99459191D01*
X136898407Y-99468407D01*
X136889191Y-99481093D01*
X136874278Y-99485938D01*
X136861593Y-99495155D01*
X136831000Y-99500000D01*
X136729000Y-99500000D01*
X136670809Y-99481093D01*
X136634845Y-99431593D01*
X136630000Y-99401000D01*
X136630000Y-98944841D01*
X136643263Y-98895342D01*
X136660119Y-98866146D01*
X136660120Y-98866144D01*
X136680021Y-98831675D01*
X136700500Y-98755248D01*
X136700500Y-97910438D01*
X136699783Y-97904993D01*
X136702375Y-97891007D01*
X136700000Y-97891007D01*
X136700000Y-97252445D01*
X136648751Y-97259912D01*
X136543812Y-97311213D01*
X136470004Y-97385022D01*
X136415487Y-97412799D01*
X136355055Y-97403228D01*
X136329996Y-97385022D01*
X136256187Y-97311213D01*
X136151246Y-97259911D01*
X136100000Y-97252443D01*
X136100000Y-97851000D01*
X136095155Y-97865911D01*
X136095155Y-97881593D01*
X136085938Y-97894278D01*
X136081093Y-97909191D01*
X136068407Y-97918407D01*
X136059191Y-97931093D01*
X136044278Y-97935938D01*
X136031593Y-97945155D01*
X136001000Y-97950000D01*
X135999000Y-97950000D01*
X135940809Y-97931093D01*
X135904845Y-97881593D01*
X135900000Y-97851000D01*
X135900000Y-97252445D01*
X135848745Y-97259913D01*
X135847570Y-97260488D01*
X135846308Y-97260666D01*
X135841403Y-97262182D01*
X135841159Y-97261394D01*
X135837225Y-97261950D01*
X135828382Y-97267519D01*
X135807603Y-97266138D01*
X135786987Y-97269053D01*
X135767331Y-97263462D01*
X135767306Y-97263452D01*
X135767249Y-97263429D01*
X135760182Y-97260597D01*
X135760169Y-97260593D01*
X135650000Y-97240000D01*
X135635554Y-97240000D01*
X135577363Y-97221093D01*
X135541399Y-97171593D01*
X135541399Y-97118589D01*
X135539865Y-97118284D01*
X135541399Y-97110572D01*
X135541399Y-97110407D01*
X135541470Y-97110213D01*
X135550499Y-97064827D01*
X135550500Y-97064818D01*
X135550500Y-96935181D01*
X135550499Y-96935172D01*
X135541767Y-96891279D01*
X135541766Y-96891276D01*
X135517528Y-96855002D01*
X135500919Y-96796114D01*
X135517528Y-96744998D01*
X135541766Y-96708723D01*
X135541765Y-96708723D01*
X135541767Y-96708722D01*
X135550500Y-96664820D01*
X135550500Y-96535180D01*
X135550499Y-96535178D01*
X135550499Y-96535172D01*
X135541767Y-96491279D01*
X135541766Y-96491276D01*
X135517528Y-96455002D01*
X135500919Y-96396114D01*
X135517528Y-96344998D01*
X135541766Y-96308723D01*
X135541765Y-96308723D01*
X135541767Y-96308722D01*
X135548386Y-96275448D01*
X135550499Y-96264827D01*
X135550500Y-96264818D01*
X135550500Y-96135181D01*
X135550499Y-96135172D01*
X135541767Y-96091279D01*
X135541766Y-96091276D01*
X135517528Y-96055002D01*
X135500919Y-95996114D01*
X135504719Y-95972568D01*
X135508980Y-95957790D01*
X135541767Y-95908722D01*
X135550500Y-95864820D01*
X135550500Y-95813817D01*
X135554376Y-95800377D01*
X135564064Y-95786059D01*
X135569407Y-95769618D01*
X135582807Y-95758364D01*
X135588668Y-95749704D01*
X135596496Y-95746867D01*
X135599861Y-95744042D01*
X135599512Y-95743553D01*
X135605732Y-95739111D01*
X135606025Y-95738866D01*
X135606187Y-95738786D01*
X135688786Y-95656187D01*
X135740087Y-95551248D01*
X135747554Y-95500000D01*
X135099849Y-95500000D01*
X135092221Y-95499500D01*
X135089562Y-95499500D01*
X133735479Y-95499500D01*
X133677288Y-95480593D01*
X133665475Y-95470504D01*
X133329496Y-95134525D01*
X133311905Y-95100000D01*
X134352446Y-95100000D01*
X134359911Y-95151249D01*
X134359912Y-95151251D01*
X134362490Y-95156525D01*
X134362635Y-95157550D01*
X134363340Y-95158309D01*
X134366905Y-95187744D01*
X134371058Y-95217108D01*
X134370623Y-95218444D01*
X134370697Y-95219050D01*
X134354824Y-95300000D01*
X135747553Y-95300000D01*
X135740087Y-95248749D01*
X135737511Y-95243480D01*
X135728940Y-95182898D01*
X135737511Y-95156518D01*
X135740087Y-95151246D01*
X135747554Y-95100000D01*
X134352446Y-95100000D01*
X133311905Y-95100000D01*
X133301719Y-95080008D01*
X133300500Y-95064521D01*
X133300500Y-94610389D01*
X133319407Y-94552198D01*
X133368907Y-94516234D01*
X133430093Y-94516234D01*
X133432198Y-94516945D01*
X133547272Y-94557212D01*
X133576999Y-94559999D01*
X133649999Y-94559998D01*
X133650000Y-94559998D01*
X133650000Y-94079000D01*
X133654845Y-94064088D01*
X133654845Y-94048407D01*
X133664061Y-94035721D01*
X133668907Y-94020809D01*
X133681592Y-94011592D01*
X133690809Y-93998907D01*
X133705721Y-93994061D01*
X133718407Y-93984845D01*
X133749000Y-93980000D01*
X133851000Y-93980000D01*
X133909191Y-93998907D01*
X133945155Y-94048407D01*
X133950000Y-94079000D01*
X133950000Y-94559998D01*
X133950001Y-94559999D01*
X134023004Y-94559999D01*
X134031468Y-94559205D01*
X134091171Y-94572594D01*
X134126126Y-94612299D01*
X134127735Y-94611371D01*
X134153547Y-94656081D01*
X134153548Y-94656081D01*
X134170538Y-94685509D01*
X134170540Y-94685511D01*
X134269539Y-94784511D01*
X134321464Y-94836435D01*
X134349242Y-94890951D01*
X134349275Y-94896335D01*
X134352445Y-94900000D01*
X134460151Y-94900000D01*
X134467779Y-94900500D01*
X134470438Y-94900500D01*
X135092221Y-94900500D01*
X135099849Y-94900000D01*
X135747553Y-94900000D01*
X135740697Y-94852936D01*
X135751018Y-94792627D01*
X135794816Y-94749902D01*
X135852937Y-94740697D01*
X135900000Y-94747554D01*
X135900000Y-94747553D01*
X136100000Y-94747553D01*
X136151251Y-94740086D01*
X136156516Y-94737513D01*
X136217098Y-94728940D01*
X136243478Y-94737510D01*
X136248751Y-94740087D01*
X136300000Y-94747554D01*
X136300000Y-93352445D01*
X136248746Y-93359913D01*
X136243475Y-93362490D01*
X136182892Y-93371058D01*
X136156522Y-93362489D01*
X136151251Y-93359912D01*
X136151245Y-93359910D01*
X136100000Y-93352443D01*
X136100000Y-94747553D01*
X135900000Y-94747553D01*
X135900000Y-93352445D01*
X135848751Y-93359912D01*
X135743812Y-93411213D01*
X135661211Y-93493814D01*
X135658203Y-93498028D01*
X135609002Y-93534399D01*
X135577633Y-93539500D01*
X135550000Y-93539500D01*
X135549999Y-93539500D01*
X135549989Y-93539501D01*
X135509635Y-93547528D01*
X135509625Y-93547531D01*
X135470739Y-93563638D01*
X135455985Y-93571155D01*
X135413639Y-93620737D01*
X135397530Y-93659629D01*
X135397528Y-93659635D01*
X135389501Y-93699989D01*
X135389500Y-93700001D01*
X135389500Y-94277715D01*
X135370593Y-94335906D01*
X135321093Y-94371870D01*
X135259907Y-94371870D01*
X135240712Y-94361775D01*
X135240130Y-94362784D01*
X135165992Y-94319980D01*
X135165988Y-94319978D01*
X135089564Y-94299500D01*
X135089562Y-94299500D01*
X134810500Y-94299500D01*
X134752309Y-94280593D01*
X134716345Y-94231093D01*
X134711500Y-94200500D01*
X134711500Y-93591437D01*
X134711499Y-93591435D01*
X134709214Y-93582909D01*
X134691021Y-93515011D01*
X134682637Y-93500490D01*
X134651460Y-93446489D01*
X134595511Y-93390539D01*
X134595511Y-93390540D01*
X134339495Y-93134524D01*
X134311718Y-93080007D01*
X134310499Y-93064520D01*
X134310499Y-92840103D01*
X134310498Y-92840092D01*
X134303972Y-92790513D01*
X134303972Y-92790511D01*
X134253225Y-92681686D01*
X134253224Y-92681685D01*
X134253224Y-92681684D01*
X134218612Y-92647072D01*
X134190837Y-92592558D01*
X134200408Y-92532126D01*
X134218615Y-92507067D01*
X134546187Y-92179496D01*
X134600703Y-92151719D01*
X134616190Y-92150500D01*
X139263810Y-92150500D01*
X139322001Y-92169407D01*
G37*
%TD.AperFunction*%
%TA.AperFunction,Conductor*%
G36*
X140861831Y-92470516D02*
G01*
X140868429Y-92469472D01*
X140909841Y-92487263D01*
X140909869Y-92487216D01*
X140910272Y-92487449D01*
X140913210Y-92488711D01*
X140915485Y-92490456D01*
X140915489Y-92490460D01*
X140915493Y-92490462D01*
X140915494Y-92490463D01*
X140984008Y-92530020D01*
X140984006Y-92530020D01*
X140984010Y-92530021D01*
X140984012Y-92530022D01*
X141060438Y-92550500D01*
X141139562Y-92550500D01*
X142370257Y-92550500D01*
X142428448Y-92569407D01*
X142440254Y-92579490D01*
X142531284Y-92670520D01*
X142668216Y-92749577D01*
X142726125Y-92765093D01*
X142777437Y-92798416D01*
X142799364Y-92855537D01*
X142799500Y-92860719D01*
X142799500Y-93059746D01*
X142799501Y-93059758D01*
X142811132Y-93118227D01*
X142811134Y-93118233D01*
X142855445Y-93184548D01*
X142855448Y-93184552D01*
X142921769Y-93228867D01*
X142966231Y-93237711D01*
X142980241Y-93240498D01*
X142980246Y-93240498D01*
X142980252Y-93240500D01*
X143600500Y-93240500D01*
X143615412Y-93245345D01*
X143631093Y-93245345D01*
X143643778Y-93254561D01*
X143658691Y-93259407D01*
X143667907Y-93272092D01*
X143680593Y-93281309D01*
X143685438Y-93296221D01*
X143694655Y-93308907D01*
X143699500Y-93339500D01*
X143699500Y-93489493D01*
X143680593Y-93547684D01*
X143670504Y-93559497D01*
X143650000Y-93580001D01*
X143650000Y-94372894D01*
X143599901Y-94422993D01*
X143534075Y-94537007D01*
X143500000Y-94664174D01*
X143500000Y-94795826D01*
X143534075Y-94922993D01*
X143599901Y-95037007D01*
X143650000Y-95087106D01*
X143650000Y-95879998D01*
X143670504Y-95900502D01*
X143674130Y-95907619D01*
X143680593Y-95912315D01*
X143687756Y-95934363D01*
X143698281Y-95955019D01*
X143699500Y-95970506D01*
X143699500Y-96029493D01*
X143680593Y-96087684D01*
X143670504Y-96099497D01*
X143650000Y-96120001D01*
X143650000Y-96912894D01*
X143599901Y-96962993D01*
X143534075Y-97077007D01*
X143500000Y-97204174D01*
X143500000Y-97335826D01*
X143534075Y-97462993D01*
X143599901Y-97577007D01*
X143650000Y-97627106D01*
X143650000Y-98419998D01*
X143670504Y-98440502D01*
X143674130Y-98447619D01*
X143680593Y-98452315D01*
X143687756Y-98474363D01*
X143698281Y-98495019D01*
X143699500Y-98510506D01*
X143699500Y-98660500D01*
X143680593Y-98718691D01*
X143631093Y-98754655D01*
X143600500Y-98759500D01*
X142980252Y-98759500D01*
X142980251Y-98759500D01*
X142980241Y-98759501D01*
X142921772Y-98771132D01*
X142921766Y-98771134D01*
X142855451Y-98815445D01*
X142855445Y-98815451D01*
X142811134Y-98881766D01*
X142811132Y-98881772D01*
X142799501Y-98940241D01*
X142799500Y-98940253D01*
X142799500Y-99139279D01*
X142780593Y-99197470D01*
X142731093Y-99233434D01*
X142726125Y-99234905D01*
X142668218Y-99250422D01*
X142668216Y-99250422D01*
X142668216Y-99250423D01*
X142531284Y-99329480D01*
X142530258Y-99330505D01*
X142529331Y-99330977D01*
X142526134Y-99333431D01*
X142525679Y-99332838D01*
X142475744Y-99358281D01*
X142460257Y-99359500D01*
X141937611Y-99359500D01*
X141879420Y-99340593D01*
X141867608Y-99330504D01*
X141676614Y-99139511D01*
X141676609Y-99139507D01*
X141573890Y-99080202D01*
X141573886Y-99080200D01*
X141549673Y-99073712D01*
X141549673Y-99073713D01*
X141459309Y-99049500D01*
X141459307Y-99049500D01*
X141099500Y-99049500D01*
X141041309Y-99030593D01*
X141005345Y-98981093D01*
X141000500Y-98950500D01*
X141000500Y-98116189D01*
X141019407Y-98057998D01*
X141029490Y-98046191D01*
X141590470Y-97485212D01*
X141628119Y-97420001D01*
X142700001Y-97420001D01*
X142700001Y-98164791D01*
X142702909Y-98189874D01*
X142748213Y-98292477D01*
X142827522Y-98371786D01*
X142930127Y-98417090D01*
X142955203Y-98419999D01*
X143349998Y-98419999D01*
X143350000Y-98419998D01*
X143350000Y-97420001D01*
X143349999Y-97420000D01*
X142700002Y-97420000D01*
X142700001Y-97420001D01*
X141628119Y-97420001D01*
X141636614Y-97405288D01*
X141651419Y-97350034D01*
X141651427Y-97350006D01*
X141651427Y-97350002D01*
X141651428Y-97350000D01*
X141660500Y-97316144D01*
X141660500Y-96375202D01*
X142700000Y-96375202D01*
X142700000Y-97119999D01*
X142700001Y-97120000D01*
X143349999Y-97120000D01*
X143350000Y-97119999D01*
X143350000Y-96120001D01*
X143349999Y-96120000D01*
X142955210Y-96120000D01*
X142955207Y-96120001D01*
X142930125Y-96122909D01*
X142827522Y-96168213D01*
X142748213Y-96247522D01*
X142702909Y-96350127D01*
X142700000Y-96375202D01*
X141660500Y-96375202D01*
X141660500Y-94880001D01*
X142700001Y-94880001D01*
X142700001Y-95624791D01*
X142702909Y-95649874D01*
X142748213Y-95752477D01*
X142827522Y-95831786D01*
X142930127Y-95877090D01*
X142955203Y-95879999D01*
X143349998Y-95879999D01*
X143350000Y-95879998D01*
X143350000Y-94880001D01*
X143349999Y-94880000D01*
X142700002Y-94880000D01*
X142700001Y-94880001D01*
X141660500Y-94880001D01*
X141660500Y-93953856D01*
X141660500Y-93835202D01*
X142700000Y-93835202D01*
X142700000Y-94579999D01*
X142700001Y-94580000D01*
X143349999Y-94580000D01*
X143350000Y-94579999D01*
X143350000Y-93580001D01*
X143349999Y-93580000D01*
X142955210Y-93580000D01*
X142955207Y-93580001D01*
X142930125Y-93582909D01*
X142827522Y-93628213D01*
X142748213Y-93707522D01*
X142702909Y-93810127D01*
X142700000Y-93835202D01*
X141660500Y-93835202D01*
X141660500Y-93613856D01*
X141636614Y-93524712D01*
X141622635Y-93500500D01*
X141622635Y-93500499D01*
X141590471Y-93444790D01*
X141590470Y-93444788D01*
X140782936Y-92637254D01*
X140771849Y-92615494D01*
X140758019Y-92595370D01*
X140758193Y-92588692D01*
X140755161Y-92582740D01*
X140758981Y-92558616D01*
X140759621Y-92534206D01*
X140763686Y-92528907D01*
X140764732Y-92522308D01*
X140782002Y-92505037D01*
X140796868Y-92485664D01*
X140803273Y-92483766D01*
X140807997Y-92479043D01*
X140832118Y-92475222D01*
X140855534Y-92468287D01*
X140861831Y-92470516D01*
G37*
%TD.AperFunction*%
%TA.AperFunction,Conductor*%
G36*
X143658691Y-90319407D02*
G01*
X143694655Y-90368907D01*
X143699500Y-90399500D01*
X143699500Y-91040500D01*
X143680593Y-91098691D01*
X143631093Y-91134655D01*
X143600500Y-91139500D01*
X142980252Y-91139500D01*
X142980251Y-91139500D01*
X142980241Y-91139501D01*
X142921772Y-91151132D01*
X142921766Y-91151134D01*
X142855451Y-91195445D01*
X142855445Y-91195451D01*
X142811134Y-91261766D01*
X142811132Y-91261772D01*
X142799501Y-91320241D01*
X142799500Y-91320253D01*
X142799500Y-91519279D01*
X142780593Y-91577470D01*
X142731093Y-91613434D01*
X142726125Y-91614905D01*
X142668218Y-91630422D01*
X142531284Y-91709480D01*
X142419478Y-91821286D01*
X142374033Y-91900000D01*
X142328564Y-91940941D01*
X142288297Y-91949500D01*
X141265479Y-91949500D01*
X141207288Y-91930593D01*
X141195475Y-91920504D01*
X140777107Y-91502136D01*
X140284511Y-91009540D01*
X140284508Y-91009538D01*
X140215992Y-90969980D01*
X140215988Y-90969978D01*
X140139564Y-90949500D01*
X140139562Y-90949500D01*
X134010438Y-90949500D01*
X134010435Y-90949500D01*
X133934011Y-90969978D01*
X133934007Y-90969980D01*
X133865491Y-91009538D01*
X132780004Y-92095025D01*
X132725487Y-92122802D01*
X132665055Y-92113231D01*
X132639997Y-92095025D01*
X132504510Y-91959539D01*
X132487121Y-91949499D01*
X132487121Y-91949500D01*
X132435989Y-91919979D01*
X132435988Y-91919978D01*
X132435987Y-91919978D01*
X132359564Y-91899500D01*
X132359562Y-91899500D01*
X131682836Y-91899500D01*
X131624645Y-91880593D01*
X131597100Y-91850001D01*
X131580521Y-91821286D01*
X131580520Y-91821284D01*
X131468716Y-91709480D01*
X131331784Y-91630423D01*
X131331781Y-91630422D01*
X131273875Y-91614905D01*
X131222561Y-91581580D01*
X131200636Y-91524458D01*
X131200500Y-91519279D01*
X131200500Y-91320253D01*
X131200498Y-91320241D01*
X131197711Y-91306231D01*
X131188867Y-91261769D01*
X131144552Y-91195448D01*
X131144548Y-91195445D01*
X131078233Y-91151134D01*
X131078231Y-91151133D01*
X131078228Y-91151132D01*
X131078227Y-91151132D01*
X131019758Y-91139501D01*
X131019748Y-91139500D01*
X131019747Y-91139500D01*
X130399500Y-91139500D01*
X130341309Y-91120593D01*
X130305345Y-91071093D01*
X130300500Y-91040500D01*
X130300500Y-90399500D01*
X130319407Y-90341309D01*
X130368907Y-90305345D01*
X130399500Y-90300500D01*
X143600500Y-90300500D01*
X143658691Y-90319407D01*
G37*
%TD.AperFunction*%
%TD*%
M02*
