%TF.GenerationSoftware,KiCad,Pcbnew,9.0.5+1*%
%TF.CreationDate,2025-11-07T12:29:22+01:00*%
%TF.ProjectId,ts17-tropic01-mini,74733137-2d74-4726-9f70-696330312d6d,rev?*%
%TF.SameCoordinates,Original*%
%TF.FileFunction,Legend,Top*%
%TF.FilePolarity,Positive*%
%FSLAX46Y46*%
G04 Gerber Fmt 4.6, Leading zero omitted, Abs format (unit mm)*
G04 Created by KiCad (PCBNEW 9.0.5+1) date 2025-11-07 12:29:22*
%MOMM*%
%LPD*%
G01*
G04 APERTURE LIST*
%ADD10C,0.150000*%
%ADD11C,0.120000*%
%ADD12C,0.000000*%
G04 APERTURE END LIST*
D10*
X131651064Y-98022200D02*
X131765350Y-98069819D01*
X131765350Y-98069819D02*
X131955826Y-98069819D01*
X131955826Y-98069819D02*
X132032017Y-98022200D01*
X132032017Y-98022200D02*
X132070112Y-97974580D01*
X132070112Y-97974580D02*
X132108207Y-97879342D01*
X132108207Y-97879342D02*
X132108207Y-97784104D01*
X132108207Y-97784104D02*
X132070112Y-97688866D01*
X132070112Y-97688866D02*
X132032017Y-97641247D01*
X132032017Y-97641247D02*
X131955826Y-97593628D01*
X131955826Y-97593628D02*
X131803445Y-97546009D01*
X131803445Y-97546009D02*
X131727255Y-97498390D01*
X131727255Y-97498390D02*
X131689160Y-97450771D01*
X131689160Y-97450771D02*
X131651064Y-97355533D01*
X131651064Y-97355533D02*
X131651064Y-97260295D01*
X131651064Y-97260295D02*
X131689160Y-97165057D01*
X131689160Y-97165057D02*
X131727255Y-97117438D01*
X131727255Y-97117438D02*
X131803445Y-97069819D01*
X131803445Y-97069819D02*
X131993922Y-97069819D01*
X131993922Y-97069819D02*
X132108207Y-97117438D01*
X132908208Y-97974580D02*
X132870112Y-98022200D01*
X132870112Y-98022200D02*
X132755827Y-98069819D01*
X132755827Y-98069819D02*
X132679636Y-98069819D01*
X132679636Y-98069819D02*
X132565350Y-98022200D01*
X132565350Y-98022200D02*
X132489160Y-97926961D01*
X132489160Y-97926961D02*
X132451065Y-97831723D01*
X132451065Y-97831723D02*
X132412969Y-97641247D01*
X132412969Y-97641247D02*
X132412969Y-97498390D01*
X132412969Y-97498390D02*
X132451065Y-97307914D01*
X132451065Y-97307914D02*
X132489160Y-97212676D01*
X132489160Y-97212676D02*
X132565350Y-97117438D01*
X132565350Y-97117438D02*
X132679636Y-97069819D01*
X132679636Y-97069819D02*
X132755827Y-97069819D01*
X132755827Y-97069819D02*
X132870112Y-97117438D01*
X132870112Y-97117438D02*
X132908208Y-97165057D01*
X133251065Y-98069819D02*
X133251065Y-97069819D01*
X133708208Y-98069819D02*
X133365350Y-97498390D01*
X133708208Y-97069819D02*
X133251065Y-97641247D01*
X131551064Y-95322200D02*
X131665350Y-95369819D01*
X131665350Y-95369819D02*
X131855826Y-95369819D01*
X131855826Y-95369819D02*
X131932017Y-95322200D01*
X131932017Y-95322200D02*
X131970112Y-95274580D01*
X131970112Y-95274580D02*
X132008207Y-95179342D01*
X132008207Y-95179342D02*
X132008207Y-95084104D01*
X132008207Y-95084104D02*
X131970112Y-94988866D01*
X131970112Y-94988866D02*
X131932017Y-94941247D01*
X131932017Y-94941247D02*
X131855826Y-94893628D01*
X131855826Y-94893628D02*
X131703445Y-94846009D01*
X131703445Y-94846009D02*
X131627255Y-94798390D01*
X131627255Y-94798390D02*
X131589160Y-94750771D01*
X131589160Y-94750771D02*
X131551064Y-94655533D01*
X131551064Y-94655533D02*
X131551064Y-94560295D01*
X131551064Y-94560295D02*
X131589160Y-94465057D01*
X131589160Y-94465057D02*
X131627255Y-94417438D01*
X131627255Y-94417438D02*
X131703445Y-94369819D01*
X131703445Y-94369819D02*
X131893922Y-94369819D01*
X131893922Y-94369819D02*
X132008207Y-94417438D01*
X132351065Y-95369819D02*
X132351065Y-94369819D01*
X132351065Y-94369819D02*
X132541541Y-94369819D01*
X132541541Y-94369819D02*
X132655827Y-94417438D01*
X132655827Y-94417438D02*
X132732017Y-94512676D01*
X132732017Y-94512676D02*
X132770112Y-94607914D01*
X132770112Y-94607914D02*
X132808208Y-94798390D01*
X132808208Y-94798390D02*
X132808208Y-94941247D01*
X132808208Y-94941247D02*
X132770112Y-95131723D01*
X132770112Y-95131723D02*
X132732017Y-95226961D01*
X132732017Y-95226961D02*
X132655827Y-95322200D01*
X132655827Y-95322200D02*
X132541541Y-95369819D01*
X132541541Y-95369819D02*
X132351065Y-95369819D01*
X133303446Y-94369819D02*
X133455827Y-94369819D01*
X133455827Y-94369819D02*
X133532017Y-94417438D01*
X133532017Y-94417438D02*
X133608208Y-94512676D01*
X133608208Y-94512676D02*
X133646303Y-94703152D01*
X133646303Y-94703152D02*
X133646303Y-95036485D01*
X133646303Y-95036485D02*
X133608208Y-95226961D01*
X133608208Y-95226961D02*
X133532017Y-95322200D01*
X133532017Y-95322200D02*
X133455827Y-95369819D01*
X133455827Y-95369819D02*
X133303446Y-95369819D01*
X133303446Y-95369819D02*
X133227255Y-95322200D01*
X133227255Y-95322200D02*
X133151065Y-95226961D01*
X133151065Y-95226961D02*
X133112969Y-95036485D01*
X133112969Y-95036485D02*
X133112969Y-94703152D01*
X133112969Y-94703152D02*
X133151065Y-94512676D01*
X133151065Y-94512676D02*
X133227255Y-94417438D01*
X133227255Y-94417438D02*
X133303446Y-94369819D01*
X132146303Y-100074580D02*
X132108207Y-100122200D01*
X132108207Y-100122200D02*
X131993922Y-100169819D01*
X131993922Y-100169819D02*
X131917731Y-100169819D01*
X131917731Y-100169819D02*
X131803445Y-100122200D01*
X131803445Y-100122200D02*
X131727255Y-100026961D01*
X131727255Y-100026961D02*
X131689160Y-99931723D01*
X131689160Y-99931723D02*
X131651064Y-99741247D01*
X131651064Y-99741247D02*
X131651064Y-99598390D01*
X131651064Y-99598390D02*
X131689160Y-99407914D01*
X131689160Y-99407914D02*
X131727255Y-99312676D01*
X131727255Y-99312676D02*
X131803445Y-99217438D01*
X131803445Y-99217438D02*
X131917731Y-99169819D01*
X131917731Y-99169819D02*
X131993922Y-99169819D01*
X131993922Y-99169819D02*
X132108207Y-99217438D01*
X132108207Y-99217438D02*
X132146303Y-99265057D01*
X132451064Y-100122200D02*
X132565350Y-100169819D01*
X132565350Y-100169819D02*
X132755826Y-100169819D01*
X132755826Y-100169819D02*
X132832017Y-100122200D01*
X132832017Y-100122200D02*
X132870112Y-100074580D01*
X132870112Y-100074580D02*
X132908207Y-99979342D01*
X132908207Y-99979342D02*
X132908207Y-99884104D01*
X132908207Y-99884104D02*
X132870112Y-99788866D01*
X132870112Y-99788866D02*
X132832017Y-99741247D01*
X132832017Y-99741247D02*
X132755826Y-99693628D01*
X132755826Y-99693628D02*
X132603445Y-99646009D01*
X132603445Y-99646009D02*
X132527255Y-99598390D01*
X132527255Y-99598390D02*
X132489160Y-99550771D01*
X132489160Y-99550771D02*
X132451064Y-99455533D01*
X132451064Y-99455533D02*
X132451064Y-99360295D01*
X132451064Y-99360295D02*
X132489160Y-99265057D01*
X132489160Y-99265057D02*
X132527255Y-99217438D01*
X132527255Y-99217438D02*
X132603445Y-99169819D01*
X132603445Y-99169819D02*
X132793922Y-99169819D01*
X132793922Y-99169819D02*
X132908207Y-99217438D01*
X133251065Y-100169819D02*
X133251065Y-99169819D01*
X133251065Y-99169819D02*
X133708208Y-100169819D01*
X133708208Y-100169819D02*
X133708208Y-99169819D01*
X133593922Y-100569819D02*
X134165350Y-100569819D01*
X133879636Y-101569819D02*
X133879636Y-100569819D01*
X135070112Y-101569819D02*
X134736779Y-101093628D01*
X134498684Y-101569819D02*
X134498684Y-100569819D01*
X134498684Y-100569819D02*
X134879636Y-100569819D01*
X134879636Y-100569819D02*
X134974874Y-100617438D01*
X134974874Y-100617438D02*
X135022493Y-100665057D01*
X135022493Y-100665057D02*
X135070112Y-100760295D01*
X135070112Y-100760295D02*
X135070112Y-100903152D01*
X135070112Y-100903152D02*
X135022493Y-100998390D01*
X135022493Y-100998390D02*
X134974874Y-101046009D01*
X134974874Y-101046009D02*
X134879636Y-101093628D01*
X134879636Y-101093628D02*
X134498684Y-101093628D01*
X135689160Y-100569819D02*
X135879636Y-100569819D01*
X135879636Y-100569819D02*
X135974874Y-100617438D01*
X135974874Y-100617438D02*
X136070112Y-100712676D01*
X136070112Y-100712676D02*
X136117731Y-100903152D01*
X136117731Y-100903152D02*
X136117731Y-101236485D01*
X136117731Y-101236485D02*
X136070112Y-101426961D01*
X136070112Y-101426961D02*
X135974874Y-101522200D01*
X135974874Y-101522200D02*
X135879636Y-101569819D01*
X135879636Y-101569819D02*
X135689160Y-101569819D01*
X135689160Y-101569819D02*
X135593922Y-101522200D01*
X135593922Y-101522200D02*
X135498684Y-101426961D01*
X135498684Y-101426961D02*
X135451065Y-101236485D01*
X135451065Y-101236485D02*
X135451065Y-100903152D01*
X135451065Y-100903152D02*
X135498684Y-100712676D01*
X135498684Y-100712676D02*
X135593922Y-100617438D01*
X135593922Y-100617438D02*
X135689160Y-100569819D01*
X136546303Y-101569819D02*
X136546303Y-100569819D01*
X136546303Y-100569819D02*
X136927255Y-100569819D01*
X136927255Y-100569819D02*
X137022493Y-100617438D01*
X137022493Y-100617438D02*
X137070112Y-100665057D01*
X137070112Y-100665057D02*
X137117731Y-100760295D01*
X137117731Y-100760295D02*
X137117731Y-100903152D01*
X137117731Y-100903152D02*
X137070112Y-100998390D01*
X137070112Y-100998390D02*
X137022493Y-101046009D01*
X137022493Y-101046009D02*
X136927255Y-101093628D01*
X136927255Y-101093628D02*
X136546303Y-101093628D01*
X137546303Y-101569819D02*
X137546303Y-100569819D01*
X138593921Y-101474580D02*
X138546302Y-101522200D01*
X138546302Y-101522200D02*
X138403445Y-101569819D01*
X138403445Y-101569819D02*
X138308207Y-101569819D01*
X138308207Y-101569819D02*
X138165350Y-101522200D01*
X138165350Y-101522200D02*
X138070112Y-101426961D01*
X138070112Y-101426961D02*
X138022493Y-101331723D01*
X138022493Y-101331723D02*
X137974874Y-101141247D01*
X137974874Y-101141247D02*
X137974874Y-100998390D01*
X137974874Y-100998390D02*
X138022493Y-100807914D01*
X138022493Y-100807914D02*
X138070112Y-100712676D01*
X138070112Y-100712676D02*
X138165350Y-100617438D01*
X138165350Y-100617438D02*
X138308207Y-100569819D01*
X138308207Y-100569819D02*
X138403445Y-100569819D01*
X138403445Y-100569819D02*
X138546302Y-100617438D01*
X138546302Y-100617438D02*
X138593921Y-100665057D01*
X139212969Y-100569819D02*
X139308207Y-100569819D01*
X139308207Y-100569819D02*
X139403445Y-100617438D01*
X139403445Y-100617438D02*
X139451064Y-100665057D01*
X139451064Y-100665057D02*
X139498683Y-100760295D01*
X139498683Y-100760295D02*
X139546302Y-100950771D01*
X139546302Y-100950771D02*
X139546302Y-101188866D01*
X139546302Y-101188866D02*
X139498683Y-101379342D01*
X139498683Y-101379342D02*
X139451064Y-101474580D01*
X139451064Y-101474580D02*
X139403445Y-101522200D01*
X139403445Y-101522200D02*
X139308207Y-101569819D01*
X139308207Y-101569819D02*
X139212969Y-101569819D01*
X139212969Y-101569819D02*
X139117731Y-101522200D01*
X139117731Y-101522200D02*
X139070112Y-101474580D01*
X139070112Y-101474580D02*
X139022493Y-101379342D01*
X139022493Y-101379342D02*
X138974874Y-101188866D01*
X138974874Y-101188866D02*
X138974874Y-100950771D01*
X138974874Y-100950771D02*
X139022493Y-100760295D01*
X139022493Y-100760295D02*
X139070112Y-100665057D01*
X139070112Y-100665057D02*
X139117731Y-100617438D01*
X139117731Y-100617438D02*
X139212969Y-100569819D01*
X140498683Y-101569819D02*
X139927255Y-101569819D01*
X140212969Y-101569819D02*
X140212969Y-100569819D01*
X140212969Y-100569819D02*
X140117731Y-100712676D01*
X140117731Y-100712676D02*
X140022493Y-100807914D01*
X140022493Y-100807914D02*
X139927255Y-100855533D01*
X141517438Y-96691792D02*
X141469819Y-96767982D01*
X141469819Y-96767982D02*
X141469819Y-96882268D01*
X141469819Y-96882268D02*
X141517438Y-96996554D01*
X141517438Y-96996554D02*
X141612676Y-97072744D01*
X141612676Y-97072744D02*
X141707914Y-97110839D01*
X141707914Y-97110839D02*
X141898390Y-97148935D01*
X141898390Y-97148935D02*
X142041247Y-97148935D01*
X142041247Y-97148935D02*
X142231723Y-97110839D01*
X142231723Y-97110839D02*
X142326961Y-97072744D01*
X142326961Y-97072744D02*
X142422200Y-96996554D01*
X142422200Y-96996554D02*
X142469819Y-96882268D01*
X142469819Y-96882268D02*
X142469819Y-96806077D01*
X142469819Y-96806077D02*
X142422200Y-96691792D01*
X142422200Y-96691792D02*
X142374580Y-96653696D01*
X142374580Y-96653696D02*
X142041247Y-96653696D01*
X142041247Y-96653696D02*
X142041247Y-96806077D01*
X142469819Y-96310839D02*
X141469819Y-96310839D01*
X141469819Y-96310839D02*
X142469819Y-95853696D01*
X142469819Y-95853696D02*
X141469819Y-95853696D01*
X142469819Y-95472744D02*
X141469819Y-95472744D01*
X141469819Y-95472744D02*
X141469819Y-95282268D01*
X141469819Y-95282268D02*
X141517438Y-95167982D01*
X141517438Y-95167982D02*
X141612676Y-95091792D01*
X141612676Y-95091792D02*
X141707914Y-95053697D01*
X141707914Y-95053697D02*
X141898390Y-95015601D01*
X141898390Y-95015601D02*
X142041247Y-95015601D01*
X142041247Y-95015601D02*
X142231723Y-95053697D01*
X142231723Y-95053697D02*
X142326961Y-95091792D01*
X142326961Y-95091792D02*
X142422200Y-95167982D01*
X142422200Y-95167982D02*
X142469819Y-95282268D01*
X142469819Y-95282268D02*
X142469819Y-95472744D01*
X140524874Y-99219819D02*
X140791541Y-100219819D01*
X140791541Y-100219819D02*
X141058207Y-99219819D01*
X141782017Y-100124580D02*
X141743921Y-100172200D01*
X141743921Y-100172200D02*
X141629636Y-100219819D01*
X141629636Y-100219819D02*
X141553445Y-100219819D01*
X141553445Y-100219819D02*
X141439159Y-100172200D01*
X141439159Y-100172200D02*
X141362969Y-100076961D01*
X141362969Y-100076961D02*
X141324874Y-99981723D01*
X141324874Y-99981723D02*
X141286778Y-99791247D01*
X141286778Y-99791247D02*
X141286778Y-99648390D01*
X141286778Y-99648390D02*
X141324874Y-99457914D01*
X141324874Y-99457914D02*
X141362969Y-99362676D01*
X141362969Y-99362676D02*
X141439159Y-99267438D01*
X141439159Y-99267438D02*
X141553445Y-99219819D01*
X141553445Y-99219819D02*
X141629636Y-99219819D01*
X141629636Y-99219819D02*
X141743921Y-99267438D01*
X141743921Y-99267438D02*
X141782017Y-99315057D01*
X142582017Y-100124580D02*
X142543921Y-100172200D01*
X142543921Y-100172200D02*
X142429636Y-100219819D01*
X142429636Y-100219819D02*
X142353445Y-100219819D01*
X142353445Y-100219819D02*
X142239159Y-100172200D01*
X142239159Y-100172200D02*
X142162969Y-100076961D01*
X142162969Y-100076961D02*
X142124874Y-99981723D01*
X142124874Y-99981723D02*
X142086778Y-99791247D01*
X142086778Y-99791247D02*
X142086778Y-99648390D01*
X142086778Y-99648390D02*
X142124874Y-99457914D01*
X142124874Y-99457914D02*
X142162969Y-99362676D01*
X142162969Y-99362676D02*
X142239159Y-99267438D01*
X142239159Y-99267438D02*
X142353445Y-99219819D01*
X142353445Y-99219819D02*
X142429636Y-99219819D01*
X142429636Y-99219819D02*
X142543921Y-99267438D01*
X142543921Y-99267438D02*
X142582017Y-99315057D01*
X131651064Y-92722200D02*
X131765350Y-92769819D01*
X131765350Y-92769819D02*
X131955826Y-92769819D01*
X131955826Y-92769819D02*
X132032017Y-92722200D01*
X132032017Y-92722200D02*
X132070112Y-92674580D01*
X132070112Y-92674580D02*
X132108207Y-92579342D01*
X132108207Y-92579342D02*
X132108207Y-92484104D01*
X132108207Y-92484104D02*
X132070112Y-92388866D01*
X132070112Y-92388866D02*
X132032017Y-92341247D01*
X132032017Y-92341247D02*
X131955826Y-92293628D01*
X131955826Y-92293628D02*
X131803445Y-92246009D01*
X131803445Y-92246009D02*
X131727255Y-92198390D01*
X131727255Y-92198390D02*
X131689160Y-92150771D01*
X131689160Y-92150771D02*
X131651064Y-92055533D01*
X131651064Y-92055533D02*
X131651064Y-91960295D01*
X131651064Y-91960295D02*
X131689160Y-91865057D01*
X131689160Y-91865057D02*
X131727255Y-91817438D01*
X131727255Y-91817438D02*
X131803445Y-91769819D01*
X131803445Y-91769819D02*
X131993922Y-91769819D01*
X131993922Y-91769819D02*
X132108207Y-91817438D01*
X132451065Y-92769819D02*
X132451065Y-91769819D01*
X132451065Y-91769819D02*
X132641541Y-91769819D01*
X132641541Y-91769819D02*
X132755827Y-91817438D01*
X132755827Y-91817438D02*
X132832017Y-91912676D01*
X132832017Y-91912676D02*
X132870112Y-92007914D01*
X132870112Y-92007914D02*
X132908208Y-92198390D01*
X132908208Y-92198390D02*
X132908208Y-92341247D01*
X132908208Y-92341247D02*
X132870112Y-92531723D01*
X132870112Y-92531723D02*
X132832017Y-92626961D01*
X132832017Y-92626961D02*
X132755827Y-92722200D01*
X132755827Y-92722200D02*
X132641541Y-92769819D01*
X132641541Y-92769819D02*
X132451065Y-92769819D01*
X133251065Y-92769819D02*
X133251065Y-91769819D01*
X140708207Y-91917438D02*
X140632017Y-91869819D01*
X140632017Y-91869819D02*
X140517731Y-91869819D01*
X140517731Y-91869819D02*
X140403445Y-91917438D01*
X140403445Y-91917438D02*
X140327255Y-92012676D01*
X140327255Y-92012676D02*
X140289160Y-92107914D01*
X140289160Y-92107914D02*
X140251064Y-92298390D01*
X140251064Y-92298390D02*
X140251064Y-92441247D01*
X140251064Y-92441247D02*
X140289160Y-92631723D01*
X140289160Y-92631723D02*
X140327255Y-92726961D01*
X140327255Y-92726961D02*
X140403445Y-92822200D01*
X140403445Y-92822200D02*
X140517731Y-92869819D01*
X140517731Y-92869819D02*
X140593922Y-92869819D01*
X140593922Y-92869819D02*
X140708207Y-92822200D01*
X140708207Y-92822200D02*
X140746303Y-92774580D01*
X140746303Y-92774580D02*
X140746303Y-92441247D01*
X140746303Y-92441247D02*
X140593922Y-92441247D01*
X141089160Y-92869819D02*
X141089160Y-91869819D01*
X141089160Y-91869819D02*
X141393922Y-91869819D01*
X141393922Y-91869819D02*
X141470112Y-91917438D01*
X141470112Y-91917438D02*
X141508207Y-91965057D01*
X141508207Y-91965057D02*
X141546303Y-92060295D01*
X141546303Y-92060295D02*
X141546303Y-92203152D01*
X141546303Y-92203152D02*
X141508207Y-92298390D01*
X141508207Y-92298390D02*
X141470112Y-92346009D01*
X141470112Y-92346009D02*
X141393922Y-92393628D01*
X141393922Y-92393628D02*
X141089160Y-92393628D01*
X142041541Y-91869819D02*
X142193922Y-91869819D01*
X142193922Y-91869819D02*
X142270112Y-91917438D01*
X142270112Y-91917438D02*
X142346303Y-92012676D01*
X142346303Y-92012676D02*
X142384398Y-92203152D01*
X142384398Y-92203152D02*
X142384398Y-92536485D01*
X142384398Y-92536485D02*
X142346303Y-92726961D01*
X142346303Y-92726961D02*
X142270112Y-92822200D01*
X142270112Y-92822200D02*
X142193922Y-92869819D01*
X142193922Y-92869819D02*
X142041541Y-92869819D01*
X142041541Y-92869819D02*
X141965350Y-92822200D01*
X141965350Y-92822200D02*
X141889160Y-92726961D01*
X141889160Y-92726961D02*
X141851064Y-92536485D01*
X141851064Y-92536485D02*
X141851064Y-92203152D01*
X141851064Y-92203152D02*
X141889160Y-92012676D01*
X141889160Y-92012676D02*
X141965350Y-91917438D01*
X141965350Y-91917438D02*
X142041541Y-91869819D01*
D11*
%TO.C,R1*%
X138946359Y-99120000D02*
X139253641Y-99120000D01*
X138946359Y-99880000D02*
X139253641Y-99880000D01*
%TO.C,IC1*%
X134890000Y-94240000D02*
X134890000Y-94130000D01*
X134890000Y-98110000D02*
X134890000Y-97760000D01*
X135240000Y-98110000D02*
X134890000Y-98110000D01*
X138760000Y-93890000D02*
X139110000Y-93890000D01*
X138760000Y-98110000D02*
X139110000Y-98110000D01*
X139110000Y-93890000D02*
X139110000Y-94240000D01*
X139110000Y-98110000D02*
X139110000Y-97760000D01*
X134890000Y-93890000D02*
X134650000Y-93560000D01*
X135130000Y-93560000D01*
X134890000Y-93890000D01*
G36*
X134890000Y-93890000D02*
G01*
X134650000Y-93560000D01*
X135130000Y-93560000D01*
X134890000Y-93890000D01*
G37*
%TO.C,C2*%
X136407836Y-99140000D02*
X136192164Y-99140000D01*
X136407836Y-99860000D02*
X136192164Y-99860000D01*
%TO.C,C3*%
X140140000Y-94587836D02*
X140140000Y-94372164D01*
X140860000Y-94587836D02*
X140860000Y-94372164D01*
D12*
%TO.C,G2*%
G36*
X136496244Y-92348057D02*
G01*
X136555359Y-92351502D01*
X136582887Y-92360548D01*
X136587744Y-92377896D01*
X136580004Y-92403103D01*
X136558603Y-92437812D01*
X136517765Y-92456561D01*
X136443145Y-92465573D01*
X136434907Y-92466083D01*
X136355989Y-92474748D01*
X136306415Y-92495624D01*
X136266154Y-92538856D01*
X136252305Y-92558570D01*
X136216510Y-92606214D01*
X136181117Y-92631682D01*
X136129414Y-92641912D01*
X136046880Y-92643839D01*
X135899405Y-92644008D01*
X136046107Y-92495758D01*
X136192809Y-92347509D01*
X136396629Y-92347509D01*
X136496244Y-92348057D01*
G37*
G36*
X135876010Y-92918683D02*
G01*
X135936006Y-92926256D01*
X135959614Y-92936894D01*
X135959628Y-92937173D01*
X135945650Y-92969805D01*
X135911849Y-93019279D01*
X135910212Y-93021372D01*
X135876057Y-93068876D01*
X135860845Y-93098106D01*
X135860795Y-93098829D01*
X135883489Y-93105817D01*
X135943530Y-93110990D01*
X136028853Y-93113397D01*
X136046523Y-93113463D01*
X136232251Y-93113463D01*
X136169648Y-93237004D01*
X136107045Y-93360544D01*
X135644698Y-93360544D01*
X135182351Y-93360544D01*
X135403694Y-93138171D01*
X135625038Y-92915797D01*
X135792333Y-92915797D01*
X135876010Y-92918683D01*
G37*
G36*
X137980959Y-92458123D02*
G01*
X138096885Y-92568738D01*
X137955682Y-92569310D01*
X137870728Y-92566498D01*
X137821176Y-92554520D01*
X137793283Y-92529374D01*
X137788033Y-92520467D01*
X137768391Y-92495232D01*
X137735258Y-92480301D01*
X137677163Y-92473103D01*
X137582633Y-92471069D01*
X137567433Y-92471050D01*
X137460182Y-92468240D01*
X137393213Y-92457126D01*
X137357578Y-92433681D01*
X137344329Y-92393880D01*
X137343286Y-92370197D01*
X137366293Y-92360907D01*
X137428530Y-92353458D01*
X137519819Y-92348733D01*
X137604160Y-92347509D01*
X137865034Y-92347509D01*
X137980959Y-92458123D01*
G37*
G36*
X138601318Y-93076126D02*
G01*
X138887546Y-93359995D01*
X137954813Y-93360270D01*
X137022080Y-93360544D01*
X137022080Y-93237004D01*
X137022080Y-93113463D01*
X137615076Y-93113463D01*
X137780352Y-93112658D01*
X137927896Y-93110396D01*
X138050954Y-93106908D01*
X138142775Y-93102425D01*
X138196607Y-93097177D01*
X138208072Y-93093217D01*
X138194286Y-93064459D01*
X138158199Y-93008803D01*
X138109239Y-92940506D01*
X138059343Y-92872543D01*
X138023817Y-92822079D01*
X138010406Y-92800148D01*
X138032893Y-92796034D01*
X138091472Y-92793180D01*
X138162748Y-92792257D01*
X138315090Y-92792257D01*
X138601318Y-93076126D01*
G37*
G36*
X138211845Y-90251806D02*
G01*
X138252845Y-90258348D01*
X138257488Y-90262480D01*
X138240843Y-90286028D01*
X138194654Y-90338274D01*
X138124543Y-90413196D01*
X138036129Y-90504772D01*
X137949111Y-90592886D01*
X137640734Y-90902081D01*
X137831747Y-90903355D01*
X138034376Y-90926202D01*
X138212492Y-90991760D01*
X138365634Y-91099852D01*
X138381029Y-91114423D01*
X138467508Y-91198579D01*
X137998052Y-91210934D01*
X137835649Y-91215365D01*
X137717211Y-91219361D01*
X137637301Y-91223674D01*
X137590482Y-91229056D01*
X137571316Y-91236258D01*
X137574366Y-91246033D01*
X137594196Y-91259132D01*
X137605231Y-91265265D01*
X137718961Y-91350707D01*
X137817027Y-91467908D01*
X137893330Y-91604599D01*
X137941771Y-91748515D01*
X137956251Y-91887387D01*
X137948052Y-91954839D01*
X137930951Y-92032697D01*
X137578027Y-91680402D01*
X137225102Y-91328107D01*
X137186506Y-91461009D01*
X137122099Y-91751277D01*
X137101865Y-92032354D01*
X137126300Y-92311430D01*
X137195903Y-92595696D01*
X137280803Y-92823142D01*
X137285195Y-92843139D01*
X137272323Y-92855827D01*
X137233925Y-92862840D01*
X137161742Y-92865811D01*
X137062256Y-92866381D01*
X136825356Y-92866381D01*
X136806354Y-92798434D01*
X136799739Y-92750086D01*
X136794401Y-92663085D01*
X136790758Y-92548185D01*
X136789227Y-92416142D01*
X136789306Y-92359864D01*
X136799301Y-92070283D01*
X136827580Y-91814185D01*
X136876499Y-91578274D01*
X136948410Y-91349255D01*
X136985123Y-91254173D01*
X136987809Y-91240792D01*
X136979988Y-91230489D01*
X136956156Y-91222864D01*
X136910810Y-91217519D01*
X136838444Y-91214053D01*
X136733557Y-91212066D01*
X136590643Y-91211160D01*
X136404198Y-91210934D01*
X136389520Y-91210934D01*
X135776382Y-91210934D01*
X135883635Y-91101651D01*
X136033496Y-90980536D01*
X136208791Y-90898258D01*
X136413423Y-90853221D01*
X136511965Y-90844881D01*
X136730741Y-90834020D01*
X136487720Y-90590084D01*
X136244699Y-90346148D01*
X136417193Y-90346167D01*
X136608072Y-90370235D01*
X136787840Y-90440642D01*
X136952022Y-90554758D01*
X137096149Y-90709954D01*
X137139159Y-90770660D01*
X137204379Y-90869214D01*
X137263657Y-90752574D01*
X137349166Y-90622554D01*
X137466880Y-90495382D01*
X137601191Y-90386397D01*
X137692148Y-90331469D01*
X137776201Y-90293920D01*
X137861326Y-90270551D01*
X137966345Y-90257091D01*
X138041292Y-90252269D01*
X138137614Y-90249604D01*
X138211845Y-90251806D01*
G37*
D11*
%TO.C,C1*%
X133440000Y-93607836D02*
X133440000Y-93392164D01*
X134160000Y-93607836D02*
X134160000Y-93392164D01*
%TD*%
M02*
