M48
; DRILL file {KiCad 9.0.5+1} date 2025-11-07T12:29:19+0100
; FORMAT={-:-/ absolute / inch / decimal}
; #@! TF.CreationDate,2025-11-07T12:29:19+01:00
; #@! TF.GenerationSoftware,Kicad,Pcbnew,9.0.5+1
; #@! TF.FileFunction,Plated,1,2,PTH
FMAT,2
INCH
; #@! TA.AperFunction,Plated,PTH,ViaDrill
T1C0.0157
; #@! TA.AperFunction,Plated,PTH,ComponentDrill
T2C0.0394
%
G90
G05
T1
X5.1614Y-3.6295
X5.1614Y-3.7295
X5.1614Y-3.8295
X5.1614Y-3.9295
X5.2244Y-3.8058
X5.2419Y-3.5797
X5.2419Y-3.9797
X5.2717Y-3.7441
X5.2878Y-3.8717
X5.3083Y-3.6488
X5.4232Y-3.9173
X5.4791Y-3.6484
X5.5039Y-3.878
X5.5315Y-3.7657
X5.5315Y-3.8051
X5.5519Y-3.5797
X5.5519Y-3.9797
X5.626Y-3.6295
X5.626Y-3.7295
X5.626Y-3.8295
X5.626Y-3.9295
T2
X5.1181Y-3.6295
X5.1181Y-3.7295
X5.1181Y-3.8295
X5.1181Y-3.9295
X5.6693Y-3.6295
X5.6693Y-3.7295
X5.6693Y-3.8295
X5.6693Y-3.9295
M30
